<svg width="28" height="28" viewBox="0 0 28 28" fill="none" xmlns="http://www.w3.org/2000/svg">
<rect x="0.664993" y="0.664993" width="26.67" height="26.67" rx="13.335" fill="#026130"/>
<mask id="mask0_4001_8177" style="mask-type:alpha" maskUnits="userSpaceOnUse" x="0" y="0" width="28" height="28">
<circle cx="14" cy="14" r="13.335" fill="#D9D9D9"/>
</mask>
<g mask="url(#mask0_4001_8177)">
<path d="M13.8422 21.2658C14.0006 21.7487 13.8422 22.3937 13.6838 22.7179C13.5286 23.2008 13.3702 23.8457 13.0534 24.1666C12.7398 24.4907 12.4229 24.6536 12.1093 24.814C11.6373 25.1349 11.3204 25.7798 10.8484 26.2661C10.8484 26.4248 10.218 27.2451 10.0596 27.2451C10.0011 27.2767 9.94501 27.3058 9.88814 27.3349C8.9571 27.0382 8.07318 26.6367 7.23882 26.1555C7.23313 26.1389 7.22744 26.1223 7.22094 26.1048C7.22094 25.9427 7.06577 24.9744 7.06577 24.8149C6.90735 24.3295 6.74892 23.6845 6.59131 23.2016C6.27772 22.3945 5.64727 21.5883 5.64727 20.6225C5.64727 19.8147 5.80245 19.0118 5.33043 18.3643C4.69998 17.5572 3.4391 17.5572 2.80865 17.0743C1.86137 16.4294 0.917326 15.4636 0.444494 14.4945C0.331567 14.3033 0.256011 14.1263 0.193454 13.9517C0.194267 13.9135 0.189392 13.8786 0.189392 13.842C0.189392 10.0578 1.65176 6.62926 4.02079 4.09259C5.31661 3.02123 7.84326 2.52753 9.37712 3.00128C9.84914 3.16003 11.5487 4.19981 11.5487 4.68354C11.5487 4.84561 11.5487 4.84561 11.3903 5.00769C11.2351 5.16976 11.0759 5.16976 10.9183 5.16976C10.4463 5.16976 8.95791 4.81901 8.79867 4.65611C7.85139 4.33279 6.43451 6.42979 6.27772 7.07476C6.11929 7.56015 6.11929 7.98154 6.90816 8.14362C7.38018 8.14362 9.54042 7.64659 9.85727 7.48452C11.1182 7.32577 12.0939 7.7588 12.4107 8.88999C12.8827 10.1799 10.218 11.4267 9.27069 11.7508C8.9571 11.9129 8.79868 11.5887 8.48183 11.7508C7.69621 12.0716 7.2315 12.7923 7.13726 13.7564C7.05764 14.5726 7.6694 15.368 7.51423 16.175C7.35581 16.175 7.03246 16.1725 7.03246 16.0113V15.6905C7.03246 15.2034 6.18347 14.5593 5.71145 14.3972C5.55303 14.2393 5.33043 14.4936 5.172 14.4936C4.69998 14.4936 4.22796 14.0082 3.75594 14.3315C3.4391 14.6524 3.1255 15.1386 3.1255 15.6215C3.1255 15.7836 3.1255 15.9456 3.28067 16.1044C3.59752 16.2665 3.91112 15.9456 4.22796 16.1044C4.54156 16.1044 4.54156 16.4285 4.54156 16.5898C4.85841 17.0727 5.172 17.7177 5.64646 17.8797H8.79786C9.26988 18.0418 10.0587 18.2006 10.3748 18.5247C10.5291 18.8455 10.5291 19.1697 10.6884 19.4905C11.4772 20.2976 12.4213 20.2976 13.3678 20.6209C13.6838 20.7821 13.8422 20.9417 13.8422 21.2658ZM22.6489 2.83505C22.5791 2.85583 22.5092 2.87495 22.4409 2.9057C21.9689 3.06778 20.7357 5.39583 20.4204 5.87873C20.262 6.04081 20.1068 6.36163 20.262 6.52371C20.262 6.68578 20.4204 6.68578 20.5789 6.68578C20.8925 6.84786 20.9355 6.91435 21.2515 7.07393C21.41 7.07393 21.5651 7.236 21.41 7.39808C21.41 7.39808 21.41 7.56015 21.2515 7.56015C20.4627 8.3672 19.6746 9.01217 18.8874 9.8159C18.7281 9.9788 18.6225 10.3038 18.6225 10.4617C18.6225 10.6238 18.7281 10.6238 18.7281 10.7859C18.7281 10.9479 18.5697 10.9479 18.4113 11.1067C18.0977 11.2688 17.7809 11.4308 17.6224 11.5921C17.4673 11.9129 17.6224 12.3991 17.4673 12.7199C17.3088 13.527 16.8344 14.172 16.52 14.9782C16.2031 15.4611 15.9204 15.944 15.6036 16.4302C15.6036 17.0752 15.4451 17.5581 15.762 18.041C16.5508 19.1713 18.1294 18.09 19.2319 18.5721C19.5455 18.7342 19.8152 18.7632 20.0207 19.055C20.4123 19.611 20.4602 20.7821 20.6187 21.2683C20.7738 21.9133 20.9323 22.5583 21.2491 23.2033C21.4059 24.0028 21.7154 24.8024 21.8747 25.4407C25.4615 22.8874 27.8119 18.6485 27.8119 13.842C27.8119 9.39035 25.7946 5.42492 22.6489 2.83505ZM17.1829 3.49665C17.6525 3.18829 17.9669 2.57241 18.1245 2.11112C18.2789 1.80193 18.7509 1.18688 18.5941 0.725591C18.4722 0.485389 17.975 0.341599 17.6111 0.216096C16.4574 -0.101404 15.2518 -0.287582 14.0006 -0.287582C13.683 -0.287582 13.3718 -0.260986 13.059 -0.238544C12.7958 -0.145455 12.5691 0.0132944 12.4838 0.265965C12.3262 1.03561 12.9534 0.881017 13.579 1.03561C13.579 1.03561 13.7366 2.26655 13.7366 2.42114C13.8942 3.19079 13.4222 4.35855 13.4222 5.12571C13.4222 5.58949 13.4222 6.35831 13.7366 6.66583H13.8942C14.0518 6.66583 14.2054 6.51124 14.5206 6.35997C14.9902 6.05078 15.4622 4.88384 15.931 4.57466C16.3997 4.26713 16.8685 3.80335 17.1829 3.49665Z" fill="#427DEB"/>
</g>
</svg>
