<svg width="33" height="33" viewBox="0 0 33 33" fill="none" xmlns="http://www.w3.org/2000/svg">
<path d="M25.0557 6.19436H26.5104V7.64855C26.5104 8.45196 27.1612 9.10275 27.9641 9.10275C28.7675 9.10275 29.4193 8.45196 29.4193 7.64855V6.19436H30.8735C31.6769 6.19436 32.3277 5.54309 32.3277 4.73969C32.3277 3.93676 31.6769 3.28549 30.8735 3.28549H29.4193V1.83082C29.4193 1.02789 28.7675 0.37662 27.9641 0.37662C27.1612 0.37662 26.5104 1.02789 26.5104 1.83082V3.28549H25.0557C24.2523 3.28549 23.6015 3.93676 23.6015 4.73969C23.6015 5.54309 24.2523 6.19436 25.0557 6.19436ZM9.05815 9.10275V23.6466C9.05815 24.45 9.70894 25.1008 10.5123 25.1008C11.3158 25.1008 11.9665 24.45 11.9665 23.6466V9.10275C11.9665 8.29982 11.3158 7.64855 10.5123 7.64855C9.70894 7.64855 9.05815 8.29982 9.05815 9.10275ZM30.2913 12.0116C29.5042 12.1719 28.9969 12.9403 29.1572 13.7274C30.6148 20.8078 26.0574 27.7299 18.9764 29.1879C11.8965 30.6459 4.97441 26.088 3.51685 19.0071C2.05882 11.9267 6.61674 5.00509 13.6972 3.54705C15.4389 3.18854 17.2352 3.18854 18.9764 3.54705C19.7794 3.70783 20.5616 3.1871 20.7219 2.3837C20.8822 1.58029 20.362 0.798961 19.5586 0.638663C18.4936 0.439972 17.4123 0.352624 16.3296 0.37662C7.49453 0.37662 0.331543 7.53913 0.331543 16.3747C0.331543 25.2102 7.49453 32.3727 16.3296 32.3727C25.1647 32.3727 32.3277 25.2102 32.3277 16.3747C32.3305 15.3001 32.2235 14.2279 32.0076 13.175C31.8631 12.385 31.1043 11.8624 30.3144 12.0073L30.2913 12.0116ZM14.8754 12.0116V13.4658C14.8821 14.5423 15.2858 15.5785 16.0095 16.3747C15.2858 17.1714 14.8821 18.2071 14.8754 19.2836V20.7377C14.8754 23.1475 16.8287 25.1008 19.2385 25.1008H20.6927C23.1024 25.1008 25.0557 23.1475 25.0557 20.7377V19.2836C25.049 18.2071 24.6454 17.1714 23.9217 16.3747C24.6454 15.5785 25.049 14.5423 25.0557 13.4658V12.0116C25.0557 9.60188 23.1024 7.64855 20.6927 7.64855H19.2385C16.8287 7.64855 14.8754 9.60188 14.8754 12.0116ZM22.1473 20.7377C22.1473 21.5412 21.4956 22.1924 20.6927 22.1924H19.2385C18.4355 22.1924 17.7843 21.5412 17.7843 20.7377V19.2836C17.7843 18.4801 18.4355 17.8289 19.2385 17.8289H20.6927C21.4956 17.8289 22.1473 18.4801 22.1473 19.2836V20.7377ZM22.1473 12.0116V13.4658C22.1473 14.2692 21.4956 14.9205 20.6927 14.9205H19.2385C18.4355 14.9205 17.7843 14.2692 17.7843 13.4658V12.0116C17.7843 11.2082 18.4355 10.5574 19.2385 10.5574H20.6927C21.4956 10.5574 22.1473 11.2082 22.1473 12.0116Z" fill="#E5EAFA"/>
</svg>
