<svg width="33" height="34" viewBox="0 0 33 34" fill="none" xmlns="http://www.w3.org/2000/svg">
  <path d="M16.4574 33.4047C14.2428 33.4047 12.0944 32.971 10.0719 32.1155C8.11845 31.2893 6.36407 30.1064 4.85752 28.5999C3.35101 27.0934 2.16818 25.339 1.34193 23.3855C0.486444 21.363 0.0527344 19.2146 0.0527344 17C0.0527344 14.7854 0.486444 12.6371 1.34193 10.6145C2.16818 8.66106 3.35101 6.90671 4.85752 5.40016C6.36407 3.89364 8.11845 2.71079 10.0719 1.88453C12.0944 1.02908 14.2428 0.595337 16.4574 0.595337C18.672 0.595337 20.8204 1.02908 22.8429 1.88453C24.7963 2.71079 26.5508 3.89364 28.0573 5.40016C29.5638 6.90671 30.7466 8.66106 31.5729 10.6145C32.4283 12.6371 32.8621 14.7855 32.8621 17C32.8621 19.2146 32.4283 21.363 31.5729 23.3855C30.7466 25.339 29.5638 27.0934 28.0573 28.5999C26.5508 30.1064 24.7963 31.2893 22.8429 32.1155C20.8204 32.971 18.672 33.4047 16.4574 33.4047ZM16.4574 0.809726C14.2717 0.809726 12.1514 1.23775 10.1554 2.08198C8.22754 2.89745 6.49606 4.06483 5.00916 5.55177C3.5222 7.03866 2.35481 8.77014 1.53938 10.698C0.695152 12.694 0.267124 14.8143 0.267124 17C0.267124 19.1857 0.695152 21.306 1.53938 23.302C2.35481 25.2299 3.5222 26.9614 5.00916 28.4483C6.49606 29.9352 8.22754 31.1026 10.1554 31.918C12.1514 32.7623 14.2717 33.1903 16.4574 33.1903C18.6431 33.1903 20.7634 32.7623 22.7593 31.918C24.6873 31.1026 26.4187 29.9352 27.9057 28.4483C29.3926 26.9614 30.56 25.2299 31.3754 23.302C32.2197 21.306 32.6477 19.1857 32.6477 17C32.6477 14.8143 32.2197 12.694 31.3754 10.698C30.56 8.77014 29.3926 7.03866 27.9057 5.55177C26.4187 4.06483 24.6873 2.89745 22.7593 2.08198C20.7634 1.23775 18.6431 0.809726 16.4574 0.809726Z" fill="#E5EAFA"></path>
  <path d="M16.4574 32.778C14.3275 32.778 12.2611 32.3608 10.3158 31.538C8.43694 30.7432 6.74959 29.6056 5.30068 28.1567C3.85173 26.7078 2.71414 25.0204 1.91943 23.1416C1.09661 21.1963 0.679443 19.1299 0.679443 17C0.679443 14.8701 1.09661 12.8038 1.91943 10.8584C2.71414 8.9796 3.85173 7.29229 5.30068 5.84334C6.74959 4.39439 8.43694 3.25681 10.3158 2.4621C12.2611 1.63931 14.3275 1.22211 16.4574 1.22211C18.5872 1.22211 20.6536 1.63931 22.5989 2.4621C24.4778 3.25681 26.1651 4.39439 27.614 5.84334C29.0629 7.29229 30.2006 8.9796 30.9953 10.8584C31.8181 12.8038 32.2353 14.8701 32.2353 17C32.2353 19.1299 31.8181 21.1963 30.9953 23.1416C30.2006 25.0204 29.0629 26.7078 27.614 28.1567C26.1651 29.6056 24.4778 30.7432 22.5989 31.538C20.6536 32.3608 18.5872 32.778 16.4574 32.778ZM16.4574 1.72235C14.3947 1.72235 12.394 2.12626 10.5107 2.92286C8.69142 3.6923 7.05756 4.7939 5.65438 6.19705C4.25124 7.60022 3.1496 9.23412 2.38016 11.0534C1.58356 12.9367 1.17968 14.9374 1.17968 17C1.17968 19.0626 1.58356 21.0634 2.38016 22.9467C3.1496 24.7659 4.25124 26.3998 5.65438 27.803C7.05756 29.2062 8.69142 30.3078 10.5107 31.0772C12.394 31.8738 14.3947 32.2777 16.4574 32.2777C18.52 32.2777 20.5207 31.8738 22.404 31.0772C24.2232 30.3078 25.8571 29.2062 27.2603 27.803C28.6634 26.3998 29.7651 24.7659 30.5345 22.9467C31.3311 21.0634 31.735 19.0626 31.735 17C31.735 14.9374 31.3311 12.9367 30.5345 11.0534C29.7651 9.23412 28.6634 7.60022 27.2603 6.19705C25.8571 4.7939 24.2232 3.6923 22.404 2.92286C20.5207 2.12626 18.52 1.72235 16.4574 1.72235Z" fill="#E5EAFA"></path>
  <path d="M7.12309 14.2858L7.27287 14.3293C7.2771 14.3148 7.28171 14.3003 7.286 14.2858H8.14841L7.37808 13.9919C7.41156 13.8911 7.44701 13.7909 7.48387 13.6913L9.34853 14.2858H11.3981L8.12312 12.3146C8.17375 12.2249 8.22566 12.1359 8.27914 12.0479L12.5303 14.2858H13.1968L9.29639 10.6663C9.36757 10.5856 9.44008 10.5061 9.51396 10.4279L14.1596 14.2858H14.3301L10.877 9.2343C10.9653 9.17072 11.0542 9.10832 11.1441 9.04797L15.1327 14.2495L12.6456 8.22536C12.745 8.18201 12.8451 8.14062 12.9459 8.10078L15.778 14.0237L14.6439 7.60823C14.7493 7.58815 14.8551 7.56982 14.9614 7.55325L16.4573 13.9472L16.7154 7.44145C16.8204 7.4442 16.9252 7.44833 17.0296 7.45445L17.1366 14.0237L18.6504 7.68877C18.7496 7.71193 18.8485 7.73643 18.9468 7.76279L17.7818 14.2495L20.6048 8.37939C20.6985 8.42471 20.7915 8.47179 20.8838 8.52025L18.4963 14.2858H18.6148L22.3519 9.47064C22.4366 9.53705 22.52 9.60489 22.6023 9.67409L19.406 14.2858H19.8001L23.8074 10.8874C23.8735 10.9669 23.9386 11.0473 24.0021 11.1289L20.6732 14.2858H21.8958L24.9907 12.6859C25.0385 12.78 25.0847 12.8748 25.1294 12.9704L22.893 14.2858H25.6286C25.6329 14.3003 25.6375 14.3148 25.6418 14.3293L25.7915 14.2858L25.9425 14.242C25.3584 12.2299 24.1141 10.4185 22.4387 9.14137C20.7078 7.82198 18.6395 7.12457 16.4573 7.12457C14.2752 7.12457 12.2068 7.82198 10.476 9.14137C8.80058 10.4185 7.55626 12.2299 6.97217 14.242L7.12309 14.2858Z" fill="#E5EAFA"></path>
  <path d="M25.7909 19.7142L25.6417 19.6708C25.6375 19.6854 25.6329 19.6998 25.6287 19.7142H23.0834L25.1933 20.8904C25.1547 20.9766 25.1147 21.0621 25.0736 21.147L22.0958 19.7142H20.8138L24.1834 22.6298C24.1261 22.7083 24.068 22.7862 24.0083 22.863L19.9015 19.7142H19.4447L22.7603 24.1901C22.6841 24.257 22.6071 24.3229 22.5289 24.3874L18.6336 19.7142H18.5136L21.1409 25.3399C21.0499 25.3912 20.9582 25.4409 20.8659 25.4891L17.7818 19.7505L19.278 26.1417C19.1785 26.1723 19.0787 26.2015 18.9782 26.2288L17.1366 19.9763L17.2406 26.5311C17.1359 26.5395 17.0307 26.5458 16.9254 26.5508L16.4572 20.0528L15.1996 26.4808C15.0952 26.4672 14.991 26.4523 14.8875 26.4354L15.7779 19.9763L13.1765 25.9871C13.0778 25.951 12.9797 25.9134 12.8822 25.874L15.1327 19.7505L11.3211 25.0678C11.2333 25.0118 11.1464 24.9537 11.0602 24.8945L14.3462 19.7142H14.2076L9.81015 23.8726C9.73386 23.7985 9.659 23.723 9.58525 23.6465L13.3038 19.7142H12.6963L8.44841 22.2206C8.39024 22.1317 8.33354 22.0417 8.27834 21.9509L11.6266 19.7142H9.34853L7.48389 20.3087C7.44698 20.2091 7.41156 20.1089 7.37808 20.0082L8.14842 19.7142H7.28596C7.28168 19.6996 7.2771 19.6852 7.27289 19.6707L7.12312 19.7142L6.97217 19.758C7.55623 21.7701 8.80055 23.5816 10.4759 24.8587C12.2068 26.1781 14.2752 26.8754 16.4573 26.8754C18.6394 26.8754 20.7077 26.1781 22.4386 24.8587C24.114 23.5817 25.3583 21.7703 25.9424 19.7582L25.7909 19.7142Z" fill="#E5EAFA"></path>
  <path d="M29.0579 9.53149L28.238 11.8486L29.9135 11.0999L29.0579 9.53149Z" fill="#E5EAFA"></path>
  <path d="M4.45972 11.0611L4.62326 10.797L4.84872 10.9367C4.80981 10.8251 4.78844 10.7325 4.78473 10.659C4.7789 10.5336 4.81056 10.4151 4.87981 10.3033C4.95821 10.1768 5.05243 10.0942 5.16252 10.0556C5.22505 10.0342 5.30198 10.0271 5.39324 10.0344C5.34492 9.92239 5.3251 9.81362 5.33367 9.70811C5.34225 9.60263 5.37744 9.49995 5.43929 9.40008C5.57161 9.18647 5.73876 9.08888 5.94079 9.1073C6.04959 9.11723 6.17419 9.16568 6.31458 9.25265L7.37212 9.90773L7.20032 10.185L6.09679 9.50152C5.99099 9.43602 5.90195 9.41745 5.82963 9.44581C5.75731 9.47425 5.69756 9.52648 5.6504 9.60263C5.58547 9.70744 5.56471 9.81942 5.58804 9.93855C5.61141 10.0577 5.70513 10.1681 5.86929 10.2697L6.79334 10.8421L6.62519 11.1136L5.58844 10.4714C5.48067 10.4046 5.3941 10.3688 5.32871 10.3638C5.22945 10.3585 5.14548 10.4112 5.0769 10.5219C5.01441 10.6227 4.99669 10.7387 5.02367 10.8696C5.05064 11.0006 5.16644 11.1294 5.37115 11.2562L6.21363 11.778L6.04823 12.045L4.45972 11.0611Z" fill="#E5EAFA"></path>
  <path d="M7.25542 7.60345C7.48537 7.59219 7.71413 7.69278 7.94179 7.9053C8.16183 8.11076 8.29392 8.33369 8.33816 8.57409C8.38235 8.81449 8.30007 9.04654 8.09118 9.27021C7.91695 9.4568 7.71514 9.54567 7.48571 9.53688C7.25623 9.52806 7.03449 9.42367 6.82041 9.22383C6.5911 9.00965 6.46247 8.78137 6.43451 8.53881C6.40662 8.29629 6.48368 8.0775 6.66578 7.88247C6.82892 7.70771 7.02549 7.61471 7.25542 7.60345ZM8.03005 8.59349C7.96718 8.43016 7.86529 8.28266 7.72433 8.15103C7.59698 8.03212 7.47452 7.95558 7.35703 7.92138C7.17173 7.86793 7.00605 7.91941 6.86004 8.07579C6.73052 8.21449 6.68986 8.36528 6.738 8.52826C6.78612 8.69119 6.88578 8.84321 7.03689 8.98433C7.18212 9.11991 7.33253 9.2014 7.48818 9.22869C7.64382 9.25602 7.78563 9.20121 7.91358 9.06416C8.05408 8.91369 8.09289 8.75679 8.03005 8.59349Z" fill="#E5EAFA"></path>
  <path d="M7.63452 7.00748L7.86328 6.81595L8.0705 7.06339C8.0489 6.99957 8.04572 6.9025 8.06102 6.77216C8.07625 6.64185 8.13159 6.53668 8.22702 6.45679C8.23146 6.45303 8.23946 6.44717 8.2509 6.43909C8.26233 6.431 8.28209 6.41751 8.3102 6.3985L8.52299 6.65265C8.50648 6.66196 8.49187 6.6712 8.47908 6.68039C8.46629 6.68961 8.45273 6.7001 8.43848 6.71204C8.31717 6.81363 8.25665 6.93069 8.2569 7.0632C8.25716 7.19577 8.2998 7.31287 8.38492 7.41452L9.07491 8.23856L8.83408 8.44019L7.63452 7.00748Z" fill="#E5EAFA"></path>
  <path d="M9.58466 5.63534C9.72232 5.62039 9.84515 5.63687 9.9532 5.68472C10.0568 5.72992 10.1514 5.79959 10.2371 5.89378C10.2994 5.95602 10.3817 6.06622 10.4841 6.22444L9.34285 6.96258C9.45097 7.11909 9.57114 7.22302 9.70328 7.27438C9.83545 7.32568 9.9747 7.30404 10.121 7.20938C10.2576 7.12101 10.3371 7.00489 10.3596 6.86096C10.3708 6.77856 10.3634 6.69635 10.3374 6.61438L10.5966 6.44668C10.6271 6.50872 10.6459 6.58761 10.6531 6.68338C10.6604 6.77914 10.6547 6.86486 10.6363 6.94047C10.6074 7.07002 10.5431 7.18641 10.4435 7.28961C10.3906 7.34597 10.3244 7.3999 10.245 7.45129C10.0509 7.57684 9.84038 7.61219 9.61356 7.55737C9.38673 7.50253 9.1906 7.34716 9.02509 7.09129C8.86208 6.83932 8.7977 6.59075 8.83189 6.34561C8.86604 6.10049 8.99281 5.90696 9.21219 5.76507C9.32283 5.69351 9.44701 5.65026 9.58466 5.63534ZM10.0776 6.19024C9.99298 6.08287 9.9092 6.00755 9.82626 5.96423C9.67247 5.88363 9.5118 5.89749 9.34428 6.00587C9.22418 6.08355 9.15175 6.19242 9.12695 6.33242C9.10213 6.47241 9.13089 6.61142 9.21326 6.74931L10.0776 6.19024Z" fill="#E5EAFA"></path>
  <path d="M11.8651 5.85357C11.91 5.94862 11.9627 6.01479 12.0232 6.0521C12.1338 6.1193 12.2827 6.11859 12.47 6.04995C12.5815 6.00911 12.6708 5.9494 12.7381 5.87079C12.8054 5.79226 12.8209 5.70328 12.7844 5.60392C12.7568 5.52856 12.7019 5.48361 12.6199 5.46913C12.5678 5.46102 12.4721 5.46446 12.3328 5.47957L12.0732 5.50787C11.9075 5.52648 11.7802 5.52606 11.6913 5.50666C11.5333 5.47414 11.4285 5.38742 11.3768 5.24656C11.316 5.08055 11.3273 4.92402 11.4109 4.77691C11.4944 4.62987 11.6386 4.51882 11.8434 4.44371C12.1112 4.34555 12.3327 4.35227 12.5079 4.46393C12.6181 4.53508 12.693 4.6278 12.7324 4.74218L12.4539 4.84426C12.4241 4.78009 12.3779 4.72863 12.3155 4.68987C12.218 4.63816 12.0837 4.64367 11.9126 4.70638C11.7986 4.74814 11.72 4.80103 11.6769 4.86499C11.6337 4.92895 11.625 4.99573 11.6505 5.06533C11.6784 5.14151 11.7393 5.18836 11.8331 5.20579C11.8877 5.21669 11.9621 5.21662 12.0565 5.20551L12.2725 5.18021C12.5072 5.15245 12.67 5.14909 12.7611 5.17021C12.9034 5.20355 13.0042 5.30102 13.0634 5.46263C13.1207 5.61882 13.1101 5.77564 13.0318 5.93322C12.9535 6.09075 12.7916 6.21453 12.5461 6.30451C12.2818 6.40137 12.073 6.41073 11.9196 6.33255C11.7661 6.25441 11.6535 6.12938 11.5817 5.95748L11.8651 5.85357Z" fill="#E5EAFA"></path>
  <path d="M14.2384 3.90531C14.3719 3.94224 14.48 4.00283 14.5628 4.08707C14.6424 4.16738 14.7047 4.26707 14.7496 4.38622C14.7845 4.46702 14.8203 4.5998 14.8572 4.78463L13.5241 5.0498C13.5669 5.2351 13.6403 5.37603 13.7441 5.4725C13.8481 5.56898 13.9855 5.60021 14.1564 5.56619C14.3159 5.53446 14.4327 5.45582 14.5066 5.33033C14.5475 5.2579 14.571 5.17875 14.577 5.09296L14.8798 5.03272C14.8852 5.10165 14.8737 5.18189 14.845 5.27358C14.8164 5.36527 14.7796 5.44285 14.7345 5.50634C14.6599 5.61607 14.5572 5.70054 14.4265 5.75968C14.3566 5.79258 14.2752 5.81831 14.1824 5.83675C13.9556 5.88187 13.7469 5.83711 13.5564 5.70243C13.3658 5.5678 13.2408 5.35105 13.1813 5.05216C13.1227 4.75784 13.1545 4.50308 13.2768 4.28782C13.3989 4.07258 13.5882 3.93951 13.8444 3.88853C13.9736 3.8628 14.105 3.8684 14.2384 3.90531ZM14.4919 4.60287C14.4529 4.47192 14.4028 4.37101 14.3417 4.30007C14.2285 4.16851 14.074 4.12211 13.8784 4.16105C13.7381 4.18896 13.6306 4.26342 13.5559 4.38441C13.4812 4.50539 13.4566 4.64521 13.4823 4.80372L14.4919 4.60287Z" fill="#E5EAFA"></path>
  <path d="M16.376 3.76226C16.5128 3.8581 16.6007 4.0302 16.6395 4.27869L16.3346 4.29351C16.3104 4.17942 16.2633 4.08594 16.1934 4.01305C16.1235 3.94021 16.0153 3.90732 15.869 3.91443C15.6691 3.92415 15.531 4.0286 15.4545 4.2277C15.4049 4.35691 15.3846 4.51433 15.3936 4.69996C15.4028 4.8868 15.4498 5.04209 15.5351 5.1659C15.6203 5.28971 15.7477 5.34745 15.9173 5.33919C16.0474 5.33288 16.1486 5.28821 16.2208 5.20524C16.2931 5.12227 16.3404 5.01122 16.3627 4.87212L16.6677 4.85724C16.6449 5.10641 16.5665 5.2916 16.4327 5.4128C16.2988 5.53405 16.1233 5.59994 15.9061 5.61051C15.6621 5.62237 15.4632 5.54268 15.3092 5.37139C15.1554 5.20012 15.0719 4.98092 15.0589 4.71372C15.043 4.3861 15.1101 4.12722 15.2604 3.93709C15.4107 3.74692 15.609 3.64585 15.8553 3.63387C16.0655 3.62362 16.2391 3.66643 16.376 3.76226Z" fill="#E5EAFA"></path>
  <path d="M17.3205 3.69474L17.1998 4.92934C17.1905 5.02428 17.1975 5.10329 17.221 5.16635C17.2642 5.28273 17.3597 5.34815 17.5074 5.36262C17.7193 5.38335 17.8732 5.30023 17.9688 5.11321C18.0208 5.01309 18.0556 4.87221 18.0733 4.69044L18.1626 3.77711L18.4752 3.80766L18.2934 5.66734L17.9982 5.63847L18.0285 5.36448C17.9817 5.43123 17.9265 5.48601 17.8627 5.52885C17.7362 5.61464 17.5894 5.64937 17.4225 5.63304C17.1624 5.6076 16.9938 5.50172 16.9169 5.31538C16.8751 5.21552 16.8619 5.08624 16.8774 4.92763L17.001 3.66351L17.3205 3.69474Z" fill="#E5EAFA"></path>
  <path d="M19.0419 3.92078L19.333 3.98616L19.2623 4.3011C19.2999 4.24518 19.3751 4.18369 19.4879 4.11662C19.6007 4.04958 19.7179 4.02972 19.8393 4.05701C19.845 4.0583 19.8545 4.06102 19.8678 4.0652C19.8812 4.06942 19.9039 4.07688 19.9361 4.08771L19.8634 4.41115C19.8461 4.40365 19.8298 4.39764 19.8148 4.39304C19.7997 4.3885 19.7831 4.38414 19.7649 4.38007C19.6105 4.34537 19.4808 4.36839 19.3757 4.44907C19.2705 4.52978 19.2034 4.63476 19.1744 4.76418L18.9387 5.81276L18.6323 5.7439L19.0419 3.92078Z" fill="#E5EAFA"></path>
  <path d="M20.1802 4.21017L20.4857 4.30315L19.9441 6.08244L19.6387 5.98946L20.1802 4.21017ZM20.385 3.53754L20.6904 3.63051L20.5868 3.97099L20.2814 3.87802L20.385 3.53754Z" fill="#E5EAFA"></path>
  <path d="M21.1661 3.97339L21.463 4.08576L21.2785 4.57365L21.5575 4.67923L21.4668 4.9191L21.1876 4.81355L20.7561 5.95421C20.7331 6.01513 20.7383 6.06372 20.7719 6.10006C20.7901 6.12067 20.826 6.14101 20.8793 6.16119C20.8934 6.16656 20.9089 6.17195 20.9254 6.17742C20.942 6.18288 20.9617 6.18821 20.9846 6.19357L20.8963 6.4269C20.8589 6.42393 20.8212 6.41772 20.783 6.40832C20.7449 6.39885 20.7046 6.38613 20.6622 6.37008C20.5251 6.31824 20.4454 6.24796 20.423 6.15927C20.4006 6.07054 20.4106 5.97021 20.453 5.85815L20.8907 4.70117L20.6541 4.61166L20.7448 4.37177L20.9814 4.46131L21.1661 3.97339Z" fill="#E5EAFA"></path>
  <path d="M22.9249 5.33611L23.2346 5.49308C23.141 5.57999 22.9297 5.77947 22.6007 6.09155C22.3538 6.32652 22.1504 6.51693 21.9904 6.66283C21.6132 7.00592 21.3679 7.20731 21.2542 7.26704C21.1406 7.32672 21.0029 7.31557 20.8412 7.2336C20.8019 7.21366 20.7723 7.19673 20.7526 7.18286C20.733 7.169 20.7097 7.14999 20.6829 7.12595L20.8122 6.87071C20.854 6.90887 20.885 6.93503 20.9052 6.94918C20.9254 6.96329 20.9437 6.97455 20.9603 6.98298C21.0121 7.00921 21.0544 7.01993 21.0875 7.01521C21.1205 7.01042 21.1516 6.99988 21.1808 6.98344C21.1901 6.97773 21.2302 6.94475 21.3012 6.8844C21.3721 6.82404 21.4243 6.77892 21.4576 6.74901L21.711 4.72089L22.0285 4.88178L21.787 6.46581L22.9249 5.33611Z" fill="#E5EAFA"></path>
  <rect x="22.9778" y="6.96222" width="1" height="1" transform="rotate(-58.2455 22.9778 6.96222)" fill="#E5EAFA"></rect>
  <path d="M24.3642 6.26379L23.5948 7.23685C23.5356 7.31171 23.4988 7.38196 23.4845 7.44765C23.4579 7.56897 23.5028 7.67566 23.6192 7.7677C23.7862 7.89978 23.9605 7.91307 24.1421 7.80754C24.2399 7.75145 24.3455 7.65179 24.4587 7.50851L25.0279 6.78864L25.2743 6.98343L24.1153 8.44917L23.8827 8.26523L24.0564 8.05112C23.981 8.082 23.9049 8.09819 23.828 8.09969C23.6753 8.10341 23.5331 8.05324 23.4015 7.94919C23.1964 7.78708 23.1119 7.60684 23.148 7.40854C23.1669 7.30188 23.2257 7.18604 23.3246 7.06104L24.1124 6.0647L24.3642 6.26379Z" fill="#E5EAFA"></path>
  <path d="M24.9068 8.40549C24.8369 8.48411 24.7968 8.55852 24.7863 8.62877C24.7677 8.7569 24.8268 8.89361 24.9634 9.03895C25.0448 9.1254 25.1348 9.18418 25.2334 9.21528C25.3321 9.24636 25.42 9.22567 25.4971 9.15317C25.5556 9.09818 25.5753 9.03003 25.5564 8.94886C25.5435 8.89773 25.5028 8.81115 25.4342 8.68899L25.3064 8.46123C25.2243 8.31617 25.1746 8.19889 25.1576 8.10946C25.1255 7.95142 25.1642 7.82099 25.2736 7.71819C25.4024 7.5971 25.5507 7.5461 25.7189 7.56527C25.8869 7.58442 26.0456 7.67342 26.195 7.83228C26.3904 8.04014 26.4711 8.24659 26.4372 8.45154C26.4149 8.58079 26.359 8.68606 26.2693 8.7672L26.0662 8.55109C26.1134 8.49842 26.1427 8.43578 26.1538 8.36323C26.1631 8.25316 26.1054 8.13178 25.9806 7.99907C25.8974 7.91057 25.8179 7.85904 25.7422 7.84446C25.6664 7.82988 25.6015 7.848 25.5475 7.89878C25.4884 7.95437 25.4693 8.02874 25.4901 8.12195C25.5014 8.17634 25.5307 8.24477 25.5779 8.32728L25.6859 8.51603C25.8036 8.72095 25.8706 8.86945 25.8869 8.96154C25.912 9.10546 25.862 9.23642 25.7365 9.35433C25.6154 9.46824 25.467 9.52006 25.2913 9.50983C25.1156 9.49962 24.9383 9.39925 24.7592 9.20881C24.5663 9.00374 24.4759 8.81533 24.4876 8.64351C24.4993 8.47173 24.57 8.31905 24.7 8.1856L24.9068 8.40549Z" fill="#E5EAFA"></path>
  <path d="M27.5103 9.65384C27.5134 9.71944 27.4992 9.80612 27.468 9.91396L28.2431 9.37538L28.4153 9.62328L26.3033 11.0906L26.142 10.8585L26.3555 10.7102C26.2193 10.7159 26.1018 10.6925 26.0029 10.6398C25.9039 10.5871 25.8179 10.508 25.7445 10.4024C25.6261 10.2321 25.5955 10.0347 25.6527 9.81012C25.7099 9.58557 25.8578 9.39034 26.0966 9.22447C26.3201 9.06915 26.5532 8.99144 26.7962 8.99133C27.039 8.99123 27.2338 9.09677 27.3806 9.30801C27.4619 9.42511 27.5051 9.54034 27.5103 9.65384ZM25.9598 9.87747C25.8972 10.0239 25.919 10.1735 26.0253 10.3265C26.1078 10.4454 26.227 10.5073 26.3829 10.5125C26.5387 10.5177 26.7126 10.4536 26.9046 10.3202C27.0985 10.1854 27.2147 10.0463 27.253 9.90269C27.2913 9.75909 27.2702 9.62935 27.1896 9.51341C27.0998 9.38412 26.9773 9.31387 26.8223 9.30255C26.6671 9.29131 26.4931 9.35269 26.3001 9.48671C26.1359 9.60091 26.0224 9.73112 25.9598 9.87747Z" fill="#E5EAFA"></path>
  <path d="M6.28238 22.2473L6.85272 23.1757C6.96545 23.3592 7.00447 23.5393 6.96974 23.7161C6.93504 23.8929 6.82353 24.0391 6.63525 24.1548C6.47328 24.2543 6.30139 24.2905 6.11948 24.2635C5.93756 24.2366 5.78288 24.1193 5.6554 23.9119L5.25745 23.264L4.38042 23.8029L4.20776 23.5219L6.28238 22.2473ZM6.66678 23.5126C6.65805 23.433 6.62068 23.3394 6.55466 23.2319L6.21352 22.6767L5.49471 23.1183L5.8358 23.6736C5.91273 23.7988 6.00203 23.884 6.10364 23.929C6.20526 23.9741 6.32385 23.955 6.45946 23.8718C6.61195 23.7781 6.68106 23.6583 6.66678 23.5126Z" fill="#E5EAFA"></path>
  <path d="M8.34763 25.3166C8.33952 25.5503 8.26491 25.7432 8.12384 25.8953L7.9086 25.6564C8.00121 25.5248 8.04579 25.3886 8.0424 25.2478C8.03897 25.1069 7.97263 24.9648 7.84335 24.8213C7.68573 24.6463 7.49582 24.5615 7.27353 24.5668C7.05125 24.572 6.81073 24.6912 6.55194 24.9243C6.33995 25.1154 6.21178 25.3189 6.16747 25.5349C6.12312 25.7508 6.18781 25.9551 6.36145 26.1479C6.52127 26.3253 6.71233 26.398 6.93466 26.3657C7.05203 26.3491 7.18114 26.2992 7.32199 26.2161L7.5372 26.455C7.32774 26.6055 7.10518 26.6796 6.86955 26.6772C6.58646 26.675 6.33633 26.5534 6.1192 26.3124C5.93204 26.1046 5.83849 25.8728 5.83862 25.6169C5.83963 25.2793 6.0159 24.9522 6.36749 24.6354C6.63448 24.3948 6.91626 24.2674 7.21289 24.253C7.53448 24.2367 7.81483 24.3612 8.05388 24.6265C8.2578 24.8529 8.35574 25.083 8.34763 25.3166Z" fill="#E5EAFA"></path>
  <rect x="8.14795" y="26.679" width="2.43483" height="1" transform="rotate(-49.3973 8.14795 26.679)" fill="#E5EAFA"></rect>
  <path d="M10.0547 26.4991L10.9036 26.9751C11.1918 27.1367 11.3572 27.3656 11.3999 27.6619C11.4368 27.9283 11.3733 28.2076 11.2096 28.4996C11.0832 28.7252 10.927 28.9055 10.7412 29.0408C10.4133 29.28 10.0695 29.2988 9.71005 29.0973L8.86401 28.623L10.0547 26.4991ZM9.79425 28.8215C9.88943 28.8748 9.97333 28.9086 10.0459 28.9227C10.1763 28.9464 10.3064 28.9243 10.4361 28.8564C10.5398 28.8018 10.6414 28.7144 10.7411 28.5942C10.8 28.5221 10.8487 28.4519 10.8871 28.3834C11.0346 28.1204 11.0981 27.8872 11.0774 27.6844C11.0567 27.4816 10.9328 27.3165 10.7057 27.1891L10.2067 26.9093L9.29239 28.5402L9.79425 28.8215Z" fill="#E5EAFA"></path>
  <path d="M11.6394 29.1647C11.6022 29.2979 11.5959 29.4142 11.6207 29.5136C11.6687 29.7003 11.8187 29.8362 12.0707 29.9216C12.1837 29.9599 12.2921 29.978 12.3962 29.9759C12.5977 29.9718 12.7268 29.886 12.7835 29.7186C12.8261 29.593 12.8184 29.4907 12.7604 29.4115C12.7011 29.3331 12.5959 29.2466 12.4447 29.1523L12.166 28.9791C11.984 28.8662 11.8612 28.7679 11.7979 28.6846C11.6886 28.5403 11.6664 28.3723 11.7313 28.1808C11.8015 27.9736 11.9289 27.8272 12.1134 27.7416C12.298 27.6559 12.5181 27.6564 12.7737 27.743C13.0089 27.8227 13.189 27.9488 13.314 28.1212C13.4389 28.2936 13.458 28.508 13.3711 28.7645L13.0775 28.665C13.1043 28.5364 13.1043 28.4307 13.0775 28.3482C13.0269 28.1969 12.8923 28.0842 12.6736 28.0101C12.497 27.9503 12.3569 27.946 12.2535 27.9973C12.1499 28.0485 12.0808 28.1254 12.0461 28.228C12.0078 28.341 12.0254 28.4392 12.0989 28.5224C12.1474 28.5762 12.2686 28.6638 12.4625 28.7855L12.7508 28.9655C12.8898 29.0522 12.9899 29.1405 13.0512 29.23C13.1566 29.3859 13.1746 29.5664 13.105 29.7715C13.0186 30.0269 12.8661 30.1788 12.6477 30.2274C12.4293 30.2758 12.2002 30.2595 11.9603 30.1782C11.6807 30.0834 11.4866 29.936 11.378 29.7359C11.269 29.5368 11.2583 29.3132 11.3459 29.0652L11.6394 29.1647Z" fill="#E5EAFA"></path>
  <path d="M13.8378 29.8181C13.8245 29.9558 13.8388 30.0714 13.8807 30.1649C13.9607 30.3402 14.1323 30.4477 14.3955 30.4874C14.5133 30.5053 14.6233 30.504 14.7254 30.4836C14.923 30.4442 15.035 30.3371 15.0614 30.1622C15.0813 30.0311 15.0556 29.9318 14.9847 29.864C14.9125 29.7973 14.7937 29.7307 14.6284 29.6644L14.3236 29.5429C14.1244 29.4636 13.9864 29.3886 13.9094 29.3177C13.7764 29.1948 13.7251 29.0334 13.7552 28.8334C13.7879 28.6171 13.8876 28.4506 14.0542 28.3338C14.2208 28.217 14.4375 28.1788 14.7045 28.2191C14.95 28.2563 15.1495 28.3487 15.3028 28.4965C15.4561 28.6442 15.5125 28.852 15.4721 29.1197L15.1656 29.0733C15.1694 28.942 15.1508 28.8381 15.1099 28.7615C15.0335 28.6215 14.8812 28.5342 14.6528 28.4998C14.4685 28.4718 14.3298 28.4923 14.237 28.5609C14.1441 28.6296 14.0896 28.7174 14.0734 28.8245C14.0556 28.9425 14.0902 29.036 14.1772 29.105C14.2344 29.1495 14.3691 29.2145 14.5814 29.3002L14.8968 29.4267C15.049 29.4877 15.163 29.5568 15.239 29.6343C15.3702 29.7692 15.4196 29.9437 15.3873 30.1578C15.347 30.4244 15.2236 30.6008 15.0172 30.687C14.8107 30.7731 14.5823 30.7973 14.3319 30.7595C14.0399 30.7153 13.8229 30.6043 13.6809 30.4264C13.5386 30.2496 13.4888 30.0314 13.5313 29.7719L13.8378 29.8181Z" fill="#E5EAFA"></path>
  <path d="M17.8486 29.1022C17.9804 29.1906 18.0672 29.3524 18.1088 29.5877L17.8195 29.6076C17.7943 29.4997 17.7479 29.4118 17.68 29.344C17.6122 29.2761 17.5089 29.2468 17.37 29.2564C17.1804 29.2695 17.0512 29.3714 16.9823 29.5619C16.9377 29.6856 16.9214 29.8354 16.9335 30.0116C16.9457 30.1889 16.9934 30.3355 17.0768 30.4515C17.16 30.5674 17.2821 30.6198 17.4431 30.6088C17.5666 30.6003 17.6618 30.5559 17.7289 30.4757C17.7959 30.3955 17.8387 30.2892 17.8572 30.1566L18.1466 30.1366C18.1297 30.3737 18.0589 30.5512 17.9341 30.6688C17.8092 30.7865 17.6438 30.8524 17.4376 30.8667C17.2062 30.8826 17.0157 30.8108 16.8662 30.651C16.7167 30.4913 16.6333 30.2846 16.6159 30.031C16.5945 29.7202 16.6533 29.473 16.7924 29.2896C16.9316 29.1061 17.118 29.0063 17.3517 28.9902C17.5512 28.9765 17.7169 29.0138 17.8486 29.1022Z" fill="#E5EAFA"></path>
  <path d="M19.5282 28.877C19.7129 28.994 19.8356 29.1974 19.8961 29.4869C19.9546 29.7668 19.9353 30.0123 19.8382 30.2232C19.741 30.4341 19.5502 30.5693 19.2656 30.6288C19.0282 30.6784 18.8228 30.637 18.6494 30.5047C18.476 30.3723 18.3609 30.17 18.3039 29.8976C18.2429 29.6058 18.2679 29.3581 18.3789 29.1545C18.4899 28.9509 18.6694 28.823 18.9176 28.7712C19.1398 28.7247 19.3434 28.76 19.5282 28.877ZM19.5883 30.0697C19.6288 29.9084 19.6303 29.7381 19.5928 29.5588C19.559 29.3968 19.5057 29.2704 19.4332 29.1796C19.3184 29.0366 19.1616 28.986 18.9627 29.0276C18.7862 29.0644 18.6721 29.1594 18.6204 29.3123C18.5687 29.4651 18.5629 29.6377 18.6031 29.83C18.6417 30.0148 18.7139 30.1603 18.8199 30.2667C18.9259 30.373 19.066 30.408 19.2404 30.3716C19.4317 30.3316 19.5477 30.2309 19.5883 30.0697Z" fill="#E5EAFA"></path>
  <path d="M19.9478 28.6245L20.2205 28.5122L20.3165 28.7452C20.3486 28.6375 20.3837 28.5544 20.4217 28.4957C20.4869 28.3959 20.5773 28.3222 20.6928 28.2746C20.8235 28.2208 20.942 28.2096 21.0483 28.2411C21.1083 28.2594 21.1715 28.2967 21.2377 28.3531C21.2629 28.24 21.308 28.1452 21.3734 28.0687C21.4387 27.9922 21.5229 27.9327 21.626 27.8902C21.8467 27.7993 22.0298 27.8171 22.1751 27.9437C22.2534 28.0118 22.3224 28.1184 22.3821 28.2635L22.8323 29.3562L22.5457 29.4742L22.076 28.334C22.031 28.2248 21.9727 28.1609 21.9012 28.1426C21.8297 28.1242 21.7546 28.1312 21.676 28.1636C21.5677 28.2083 21.4894 28.2829 21.4411 28.3877C21.3928 28.4923 21.4036 28.6296 21.4734 28.7992L21.8668 29.7539L21.5863 29.8694L21.1451 28.7982C21.0992 28.6869 21.0524 28.6111 21.0048 28.571C20.9313 28.5116 20.8373 28.5055 20.723 28.5526C20.6187 28.5956 20.5406 28.675 20.4886 28.7907C20.4365 28.9067 20.454 29.0703 20.5412 29.2818L20.8998 30.1523L20.6239 30.2659L19.9478 28.6245Z" fill="#E5EAFA"></path>
  <path d="M22.3828 27.5592L22.6277 27.4007L22.7555 27.5983C22.762 27.4981 22.7828 27.4101 22.8184 27.3345C22.8669 27.2241 22.9485 27.1319 23.0629 27.0578C23.2322 26.9483 23.4178 26.92 23.6196 26.9729C23.8214 27.0259 24.0001 27.1725 24.1556 27.4128C24.3658 27.7375 24.4307 28.0244 24.3503 28.2739C24.2993 28.432 24.2021 28.5574 24.0587 28.6502C23.946 28.7232 23.8356 28.7598 23.7274 28.76C23.6647 28.7611 23.584 28.7456 23.4851 28.7134L23.9778 29.4745L23.7273 29.6367L22.3828 27.5592ZM24.0812 28.1174C24.0955 27.9693 24.0397 27.7978 23.9136 27.603C23.8367 27.4842 23.7534 27.3933 23.6638 27.3303C23.4923 27.2083 23.3201 27.2033 23.147 27.3153C22.9729 27.428 22.9099 27.5918 22.9579 27.8069C22.9835 27.9219 23.0426 28.0509 23.135 28.1938C23.2095 28.3088 23.29 28.3955 23.3767 28.4539C23.5415 28.5658 23.7104 28.5656 23.8837 28.4535C24.0009 28.3777 24.0668 28.2656 24.0812 28.1174Z" fill="#E5EAFA"></path>
  <rect x="24.3198" y="25.9766" width="1" height="2.43483" transform="rotate(-38.5816 24.3198 25.9766)" fill="#E5EAFA"></rect>
  <path d="M23.916 25.6422L24.1428 25.4407L24.3674 25.6935L24.1406 25.895L23.916 25.6422ZM24.3596 26.1416L24.5864 25.9401L25.7598 27.261L25.5331 27.4625L24.3596 26.1416Z" fill="#E5EAFA"></path>
  <path d="M25.9962 25.5009C26.0362 25.4446 26.0463 25.3915 26.0265 25.3415C26.0159 25.3137 25.9922 25.283 25.9556 25.249C25.8807 25.1797 25.8018 25.156 25.7189 25.1778C25.6361 25.1996 25.549 25.26 25.4578 25.3588C25.3522 25.473 25.3083 25.5826 25.3262 25.6877C25.3357 25.7461 25.3707 25.8106 25.4309 25.8812L25.2419 26.0857C25.0845 25.9327 25.0205 25.7771 25.0499 25.6187C25.0793 25.4604 25.1551 25.3151 25.2772 25.183C25.4187 25.0298 25.5629 24.9324 25.7097 24.8907C25.8558 24.8498 25.9905 24.8863 26.1139 25.0004L26.865 25.6943C26.8877 25.7154 26.9103 25.7277 26.9327 25.731C26.9551 25.7344 26.9802 25.7211 27.0079 25.6911C27.017 25.6813 27.0264 25.6699 27.0365 25.6565C27.0465 25.6432 27.0567 25.6286 27.067 25.6125L27.2289 25.7621C27.2072 25.8052 27.1892 25.8368 27.1752 25.8569C27.1611 25.8769 27.1398 25.9025 27.1114 25.9333C27.0416 26.0087 26.9642 26.0387 26.8792 26.0234C26.8342 26.015 26.7825 25.9905 26.7238 25.9498C26.741 26.0485 26.7325 26.1594 26.6983 26.2827C26.664 26.406 26.6004 26.5181 26.5074 26.6187C26.3956 26.7396 26.2677 26.8046 26.1235 26.8135C25.9792 26.8224 25.852 26.7759 25.7418 26.674C25.621 26.5624 25.5623 26.4382 25.5655 26.3013C25.5688 26.1645 25.6193 26.0276 25.7172 25.8908L25.9962 25.5009ZM26.1619 26.5093C26.2411 26.4967 26.3099 26.4588 26.3684 26.3954C26.4396 26.3183 26.4908 26.2272 26.5219 26.122C26.5752 25.9457 26.5347 25.7953 26.4001 25.671L26.2239 25.5082C26.2162 25.5508 26.1987 25.5983 26.1712 25.6509C26.1437 25.7036 26.1136 25.7525 26.0811 25.7975L25.9758 25.9456C25.913 26.0347 25.8744 26.1097 25.8602 26.1706C25.8356 26.2737 25.865 26.3636 25.9484 26.4407C26.0115 26.499 26.0827 26.5219 26.1619 26.5093Z" fill="#E5EAFA"></path>
  <path d="M26.0095 24.4216L26.1699 24.1879L26.3777 24.3305C26.3395 24.2025 26.3284 24.0869 26.3442 23.9839C26.36 23.8808 26.4005 23.7819 26.4655 23.6871C26.608 23.4794 26.7768 23.3889 26.9716 23.4154C27.0784 23.4297 27.2056 23.4875 27.3532 23.5888L28.292 24.2332L28.1203 24.4833L27.1979 23.8501C27.1087 23.7889 27.0276 23.7527 26.9548 23.7415C26.8337 23.7228 26.7338 23.7707 26.6549 23.8855C26.6149 23.9438 26.588 23.9957 26.5742 24.0412C26.548 24.1224 26.5474 24.2091 26.5726 24.3014C26.5927 24.3755 26.6243 24.4364 26.6673 24.4841C26.7103 24.5317 26.7797 24.5883 26.8753 24.654L27.642 25.1802L27.4731 25.4262L26.0095 24.4216Z" fill="#E5EAFA"></path>
  <path d="M26.5642 22.6576L26.7075 22.3921L27.1436 22.6274L27.2782 22.3779L27.4926 22.4936L27.3581 22.7431L28.3777 23.2931C28.4323 23.3224 28.4787 23.3237 28.517 23.2967C28.5388 23.282 28.5624 23.2509 28.5883 23.2032C28.595 23.1906 28.6021 23.1768 28.6093 23.1619C28.6165 23.1469 28.624 23.1291 28.6319 23.1082L28.8405 23.2207C28.833 23.2556 28.8224 23.2903 28.8087 23.3251C28.795 23.3597 28.778 23.396 28.7575 23.434C28.6914 23.5565 28.6152 23.6227 28.5289 23.6326C28.4426 23.6426 28.3492 23.6205 28.2491 23.5665L27.2149 23.0085L27.1008 23.2201L26.8864 23.1044L27.0004 22.8929L26.5642 22.6576Z" fill="#E5EAFA"></path>
  <path d="M4.80363 17.2488C4.81124 17.3899 4.84329 17.5044 4.89978 17.5924C5.0074 17.7572 5.19704 17.8395 5.46877 17.8395C5.59047 17.8395 5.70132 17.8215 5.80132 17.7854C5.99477 17.7154 6.0915 17.5901 6.0915 17.4096C6.0915 17.2743 6.05051 17.1778 5.96855 17.1202C5.88547 17.0639 5.75541 17.0148 5.57836 16.973L5.2521 16.8968C5.03896 16.8472 4.88814 16.7925 4.79963 16.7327C4.64659 16.6289 4.57009 16.4738 4.57009 16.2673C4.57009 16.0439 4.64527 15.8606 4.79569 15.7173C4.94609 15.574 5.15913 15.5023 5.43469 15.5023C5.6883 15.5023 5.90377 15.5653 6.08111 15.691C6.25841 15.8169 6.34705 16.018 6.34705 16.2944H6.03058C6.01436 16.1613 5.97973 16.0591 5.92674 15.9881C5.8283 15.8584 5.66119 15.7934 5.42539 15.7934C5.23499 15.7934 5.09816 15.8352 5.01488 15.9186C4.93159 16.0021 4.88995 16.0992 4.88995 16.2097C4.88995 16.3316 4.93913 16.4207 5.03752 16.4771C5.10202 16.5133 5.24796 16.5584 5.47535 16.6125L5.81312 16.6921C5.97602 16.7305 6.10172 16.7829 6.19026 16.8495C6.3433 16.9657 6.41984 17.1344 6.41984 17.3555C6.41984 17.6308 6.32218 17.8277 6.12688 17.9461C5.93156 18.0645 5.70464 18.1238 5.44605 18.1238C5.14458 18.1238 4.90857 18.0448 4.73803 17.8869C4.56738 17.7301 4.48376 17.5174 4.48716 17.2488H4.80363Z" fill="#E5EAFA"></path>
  <path d="M7.87735 16.2885C7.9973 16.3488 8.0887 16.427 8.1515 16.5229C8.21204 16.6143 8.25238 16.7209 8.27261 16.8427C8.29054 16.9262 8.29951 17.0593 8.29951 17.2421H6.98117C6.98677 17.4265 7.02988 17.5745 7.11047 17.6859C7.19109 17.7974 7.3159 17.8531 7.48491 17.8531C7.64275 17.8531 7.76869 17.8004 7.86273 17.6949C7.91536 17.6337 7.95264 17.5629 7.97458 17.4824H8.27414C8.26625 17.549 8.23999 17.6232 8.19547 17.705C8.15088 17.7868 8.10114 17.8536 8.04628 17.9055C7.95447 17.9958 7.84079 18.0567 7.70534 18.0883C7.63255 18.1063 7.55026 18.1154 7.45847 18.1154C7.23422 18.1154 7.04416 18.0333 6.88831 17.8691C6.73244 17.705 6.65454 17.4751 6.65454 17.1795C6.65454 16.8884 6.733 16.652 6.89001 16.4704C7.047 16.2888 7.2522 16.1979 7.5056 16.1979C7.63345 16.1979 7.75732 16.2281 7.87735 16.2885ZM7.98643 17.0001C7.97411 16.8681 7.94556 16.7626 7.90082 16.6837C7.81804 16.537 7.67986 16.4636 7.48633 16.4636C7.34763 16.4636 7.23129 16.5142 7.13728 16.6151C7.0433 16.7161 6.99353 16.8444 6.98795 17.0001H7.98643Z" fill="#E5EAFA"></path>
  <path d="M9.78574 16.335C9.91376 16.4343 9.99075 16.6052 10.0167 16.8478H9.72057C9.70251 16.7361 9.66135 16.6433 9.59703 16.5694C9.53271 16.4955 9.42949 16.4585 9.28731 16.4585C9.09326 16.4585 8.95447 16.5532 8.871 16.7425C8.81683 16.8654 8.78976 17.0169 8.78976 17.1972C8.78976 17.3786 8.82814 17.5313 8.90485 17.6553C8.98157 17.7792 9.10229 17.8412 9.26701 17.8412C9.39337 17.8412 9.49348 17.8027 9.56741 17.7257C9.64131 17.6487 9.69237 17.5434 9.72057 17.4096H10.0167C9.98291 17.65 9.89825 17.8257 9.76288 17.9368C9.62747 18.0479 9.45428 18.1035 9.24333 18.1035C9.00639 18.1035 8.8174 18.0169 8.67638 17.8438C8.53534 17.6705 8.46484 17.4542 8.46484 17.1947C8.46484 16.8765 8.5421 16.6289 8.69667 16.4518C8.85126 16.2747 9.04813 16.186 9.28731 16.186C9.49153 16.186 9.65767 16.2357 9.78574 16.335Z" fill="#E5EAFA"></path>
  <path d="M10.5289 16.2385V17.4418C10.5289 17.5343 10.5432 17.6099 10.5718 17.6685C10.6245 17.7769 10.7229 17.831 10.8669 17.831C11.0734 17.831 11.214 17.7362 11.2888 17.5467C11.3294 17.4452 11.3497 17.3058 11.3497 17.1287V16.2385H11.6544V18.051H11.3666L11.3701 17.7836C11.3312 17.8525 11.2831 17.9106 11.2255 17.9579C11.1115 18.0527 10.9731 18.1001 10.8104 18.1001C10.5569 18.1001 10.3841 18.0138 10.2922 17.8412C10.2424 17.7487 10.2175 17.6252 10.2175 17.4706V16.2385H10.5289Z" fill="#E5EAFA"></path>
  <path d="M12.0632 16.2385H12.3526V16.5516C12.3763 16.4907 12.4344 16.4165 12.5269 16.329C12.6194 16.2416 12.726 16.1979 12.8468 16.1979C12.8524 16.1979 12.862 16.1985 12.8755 16.1996C12.8891 16.2007 12.9122 16.2029 12.9449 16.2063V16.5279C12.9269 16.5245 12.9103 16.5222 12.895 16.5211C12.8798 16.52 12.8632 16.5194 12.8451 16.5194C12.6916 16.5194 12.5737 16.5688 12.4914 16.6675C12.409 16.7663 12.3679 16.8799 12.3679 17.0085V18.051H12.0632V16.2385Z" fill="#E5EAFA"></path>
  <path d="M14.2314 16.2885C14.3513 16.3488 14.4427 16.427 14.5055 16.5229C14.566 16.6143 14.6064 16.7209 14.6266 16.8427C14.6446 16.9262 14.6535 17.0593 14.6535 17.2421H13.3352C13.3408 17.4265 13.3839 17.5745 13.4645 17.6859C13.5451 17.7974 13.6699 17.8531 13.8389 17.8531C13.9967 17.8531 14.1227 17.8004 14.2167 17.6949C14.2694 17.6337 14.3066 17.5629 14.3286 17.4824H14.6281C14.6202 17.549 14.594 17.6232 14.5495 17.705C14.5049 17.7868 14.4551 17.8536 14.4003 17.9055C14.3085 17.9958 14.1948 18.0567 14.0593 18.0883C13.9865 18.1063 13.9043 18.1154 13.8125 18.1154C13.5882 18.1154 13.3982 18.0333 13.2423 17.8691C13.0864 17.705 13.0085 17.4751 13.0085 17.1795C13.0085 16.8884 13.087 16.652 13.244 16.4704C13.401 16.2888 13.6062 16.1979 13.8596 16.1979C13.9875 16.1979 14.1113 16.2281 14.2314 16.2885ZM14.3404 17.0001C14.3281 16.8681 14.2996 16.7626 14.2548 16.6837C14.172 16.537 14.0338 16.4636 13.8404 16.4636C13.7016 16.4636 13.5853 16.5142 13.4913 16.6151C13.3973 16.7161 13.3475 16.8444 13.3419 17.0001H14.3404Z" fill="#E5EAFA"></path>
  <path d="M15.8811 15.565H16.9936C17.2135 15.565 17.3911 15.6273 17.5263 15.752C17.6616 15.8766 17.7292 16.0518 17.7292 16.2775C17.7292 16.4716 17.6688 16.6404 17.5482 16.7843C17.4275 16.9282 17.2428 17.0001 16.9942 17.0001H16.2179V18.0511H15.8811V15.565ZM17.1874 15.9068C17.1134 15.8719 17.0121 15.8543 16.8832 15.8543H16.2179V16.7158H16.8832C17.0333 16.7158 17.1552 16.6836 17.2487 16.6193C17.3423 16.555 17.389 16.4416 17.389 16.2792C17.389 16.0964 17.3218 15.9723 17.1874 15.9068Z" fill="#E5EAFA"></path>
  <path d="M18.9946 16.9542C19.0645 16.9452 19.1114 16.9159 19.1351 16.8663C19.1486 16.8391 19.1553 16.8001 19.1553 16.7491C19.1553 16.6449 19.1185 16.5693 19.0447 16.5223C18.9709 16.4753 18.8654 16.4518 18.728 16.4518C18.5692 16.4518 18.4566 16.4949 18.3902 16.5811C18.353 16.6287 18.3289 16.6996 18.3176 16.7937H18.0333C18.0389 16.5697 18.1113 16.4138 18.2505 16.3261C18.3896 16.2384 18.5511 16.1946 18.7347 16.1946C18.9478 16.1946 19.1207 16.2352 19.2537 16.3164C19.3856 16.3977 19.4515 16.524 19.4515 16.6956V17.7398C19.4515 17.7714 19.4579 17.7968 19.4709 17.8159C19.4839 17.8351 19.5113 17.8446 19.553 17.8446C19.5665 17.8446 19.5818 17.8438 19.5987 17.8421C19.6157 17.8404 19.6337 17.8379 19.6529 17.8345V18.0595C19.6055 18.0731 19.5694 18.0816 19.5446 18.0849C19.5197 18.0883 19.4859 18.0901 19.4431 18.0901C19.3381 18.0901 19.262 18.0528 19.2145 17.9784C19.1897 17.9388 19.1722 17.883 19.1621 17.8109C19.1 17.8921 19.0109 17.9626 18.8947 18.0223C18.7784 18.0821 18.6504 18.112 18.5105 18.112C18.3424 18.112 18.205 18.061 18.0984 17.959C17.9918 17.8571 17.9385 17.7295 17.9385 17.5762C17.9385 17.4083 17.991 17.2782 18.0959 17.1858C18.2008 17.0934 18.3384 17.0364 18.5089 17.015L18.9946 16.9542ZM18.3531 17.7771C18.4175 17.8278 18.4936 17.8531 18.5816 17.8531C18.6888 17.8531 18.7926 17.8283 18.8929 17.7788C19.0623 17.6965 19.1469 17.5619 19.1469 17.3749V17.1299C19.1097 17.1537 19.0618 17.1735 19.0033 17.1894C18.9448 17.2052 18.8873 17.2165 18.8311 17.2232L18.6469 17.2469C18.5366 17.2615 18.4536 17.2846 18.398 17.3162C18.3038 17.3691 18.2567 17.4535 18.2567 17.5695C18.2567 17.6573 18.2888 17.7265 18.3531 17.7771Z" fill="#E5EAFA"></path>
  <path d="M20.9868 16.2385H21.3235C21.2806 16.3548 21.1853 16.62 21.0375 17.0343C20.9269 17.3459 20.8345 17.5998 20.76 17.7962C20.5841 18.2584 20.4601 18.5403 20.388 18.6418C20.3159 18.7433 20.1919 18.794 20.0161 18.794C19.9732 18.794 19.9402 18.7923 19.9171 18.7889C19.894 18.7855 19.8655 18.7793 19.8317 18.7703V18.4927C19.8846 18.5074 19.923 18.5164 19.9466 18.5198C19.9702 18.5232 19.9911 18.5249 20.0092 18.5249C20.0654 18.5249 20.1068 18.5156 20.1332 18.497C20.1597 18.4785 20.182 18.4557 20.2 18.4286C20.2057 18.4196 20.226 18.3734 20.2609 18.2901C20.2958 18.2068 20.3211 18.1449 20.3369 18.1043L19.6667 16.2385H20.012L20.4977 17.7149L20.9868 16.2385Z" fill="#E5EAFA"></path>
  <path d="M21.4895 16.2385H21.7908V16.4958C21.863 16.4066 21.9285 16.3417 21.9871 16.3011C22.0875 16.2323 22.2014 16.1979 22.3289 16.1979C22.4734 16.1979 22.5895 16.2334 22.6776 16.3045C22.7272 16.3451 22.7723 16.4049 22.813 16.4839C22.8807 16.3869 22.9602 16.315 23.0516 16.2681C23.143 16.2213 23.2457 16.1979 23.3596 16.1979C23.6033 16.1979 23.7692 16.2859 23.8572 16.4619C23.9045 16.5566 23.9282 16.6842 23.9282 16.8444V18.051H23.6118V16.7919C23.6118 16.6712 23.5816 16.5882 23.5212 16.5431C23.4608 16.498 23.3873 16.4755 23.3004 16.4755C23.1808 16.4755 23.0778 16.5155 22.9915 16.5956C22.9052 16.6757 22.8621 16.8094 22.8621 16.9967V18.051H22.5524V16.8681C22.5524 16.7451 22.5377 16.6554 22.5084 16.599C22.462 16.5143 22.3758 16.472 22.2495 16.472C22.1343 16.472 22.0297 16.5166 21.9354 16.6057C21.8413 16.6949 21.7941 16.8562 21.7941 17.0898V18.051H21.4895V16.2385Z" fill="#E5EAFA"></path>
  <path d="M25.3992 16.2885C25.5192 16.3488 25.6106 16.427 25.6734 16.5229C25.7339 16.6143 25.7743 16.7209 25.7945 16.8427C25.8124 16.9262 25.8214 17.0593 25.8214 17.2421H24.5031C24.5087 17.4265 24.5518 17.5745 24.6323 17.6859C24.713 17.7974 24.8378 17.8531 25.0068 17.8531C25.1647 17.8531 25.2906 17.8004 25.3846 17.6949C25.4373 17.6337 25.4745 17.5629 25.4965 17.4824H25.796C25.7881 17.549 25.7619 17.6232 25.7173 17.705C25.6727 17.7868 25.623 17.8536 25.5682 17.9055C25.4763 17.9958 25.3627 18.0567 25.2273 18.0883C25.1544 18.1063 25.0721 18.1154 24.9804 18.1154C24.7561 18.1154 24.566 18.0333 24.4103 17.8691C24.2543 17.705 24.1765 17.4751 24.1765 17.1795C24.1765 16.8884 24.2549 16.652 24.4119 16.4704C24.5688 16.2888 24.774 16.1979 25.0275 16.1979C25.1553 16.1979 25.2792 16.2281 25.3992 16.2885ZM25.5084 17.0001C25.496 16.8681 25.4674 16.7626 25.4227 16.6837C25.3399 16.537 25.2018 16.4636 25.0082 16.4636C24.8695 16.4636 24.7532 16.5142 24.6591 16.6151C24.5652 16.7161 24.5154 16.8444 24.5098 17.0001H25.5084Z" fill="#E5EAFA"></path>
  <path d="M26.1104 16.2385H26.3997V16.4958C26.4855 16.3897 26.5763 16.3135 26.6722 16.2673C26.7681 16.221 26.8748 16.1979 26.9921 16.1979C27.2493 16.1979 27.423 16.2876 27.5134 16.4669C27.5629 16.5651 27.5878 16.7056 27.5878 16.8884V18.051H27.2781V16.9087C27.2781 16.7981 27.2617 16.709 27.229 16.6413C27.1749 16.5285 27.0767 16.472 26.9345 16.472C26.8623 16.472 26.8031 16.4794 26.7569 16.494C26.6734 16.5189 26.6 16.5685 26.5369 16.6429C26.4861 16.7028 26.4531 16.7646 26.4378 16.8283C26.4226 16.8921 26.415 16.9832 26.415 17.1016V18.051H26.1104V16.2385Z" fill="#E5EAFA"></path>
  <path d="M28.0018 15.7325H28.3098V16.2386H28.5992V16.4873H28.3098V17.6703C28.3098 17.7335 28.3313 17.7758 28.3741 17.7972C28.3978 17.8096 28.4374 17.8159 28.4926 17.8159C28.5073 17.8159 28.5231 17.8155 28.54 17.8147C28.5569 17.814 28.5767 17.8121 28.5992 17.8091V18.0511C28.5642 18.0612 28.5278 18.0685 28.4901 18.0731C28.4521 18.0776 28.4114 18.0798 28.3673 18.0798C28.2252 18.0798 28.1288 18.0435 28.078 17.9707C28.0272 17.8979 28.0018 17.8034 28.0018 17.6872V16.4873H27.7563V16.2386H28.0018V15.7325Z" fill="#E5EAFA"></path>
</svg>