<svg width="32" height="30" viewBox="0 0 32 30" fill="none" xmlns="http://www.w3.org/2000/svg">
<path d="M0.937134 29.0985C0.796692 29.0985 0.671021 29.0468 0.573792 28.9495C0.476501 28.8527 0.425293 28.7271 0.425293 28.5867V24.2432C0.425293 24.1044 0.475525 23.9782 0.571228 23.8789C0.668518 23.7781 0.795227 23.7244 0.937134 23.7244H2.37512C2.95325 23.7244 3.45343 23.8561 3.86182 24.1155C4.26868 24.374 4.57928 24.7135 4.78455 25.1244C4.98773 25.5313 5.09106 25.964 5.09106 26.4114C5.09106 26.8588 4.98773 27.2921 4.78455 27.6985C4.57928 28.1094 4.26868 28.4489 3.86182 28.7073C3.45343 28.9667 2.95325 29.0985 2.37512 29.0985H0.937134ZM2.29657 28.1104C2.6543 28.1104 2.97052 28.0374 3.23651 27.8935C3.50305 27.7496 3.70319 27.5556 3.84912 27.3012C3.99359 27.0473 4.06702 26.7484 4.06702 26.4114C4.06702 26.075 3.99359 25.7755 3.84863 25.5216C3.70319 25.2673 3.50305 25.0732 3.23651 24.9293C2.96997 24.7854 2.65381 24.7124 2.29657 24.7124H1.45648V28.1104H2.29657Z" fill="#E5EAFA"/>
<path d="M10.8757 29.098C10.7353 29.098 10.6096 29.0468 10.5123 28.9495C10.415 28.8522 10.3639 28.7266 10.3639 28.5862V25.5166C10.3639 25.3778 10.4146 25.2516 10.5098 25.1523C10.6071 25.0514 10.7338 24.9977 10.8757 24.9977C11.0206 24.9977 11.1488 25.0489 11.246 25.1462C11.3433 25.2435 11.395 25.3717 11.395 25.5166V28.5862C11.395 28.7281 11.3413 28.8548 11.2399 28.9521C11.1407 29.0478 11.0145 29.098 10.8757 29.098ZM10.8615 24.6663C10.7115 24.6663 10.5762 24.6101 10.4698 24.5032C10.3629 24.3968 10.3066 24.2615 10.3066 24.1115V24.0826C10.3066 23.9331 10.3629 23.7973 10.4698 23.6909C10.5762 23.5845 10.7115 23.5278 10.8615 23.5278H10.9045C11.054 23.5278 11.1898 23.5845 11.2962 23.6909C11.4031 23.7973 11.4594 23.9331 11.4594 24.0826V24.1115C11.4594 24.2615 11.4031 24.3968 11.2962 24.5032C11.1898 24.6101 11.054 24.6663 10.9045 24.6663H10.8615Z" fill="#E5EAFA"/>
<path d="M8.93811 24.9623C8.79932 24.9623 8.6731 25.0129 8.57379 25.1082C8.47247 25.206 8.41919 25.3327 8.41919 25.4741V25.506C8.41876 25.5095 8.41772 25.5131 8.41772 25.5171V27.4239C8.41772 27.9022 8.00525 28.1175 7.61963 28.1175C7.20111 28.1175 6.83832 27.9133 6.83832 27.4345V25.4741C6.83832 25.3337 6.78717 25.2085 6.68988 25.1107C6.59259 25.0135 6.46692 24.9623 6.32654 24.9623C6.18768 24.9623 6.06152 25.0129 5.96222 25.1082C5.86084 25.206 5.80713 25.3322 5.80713 25.4741V27.5064C5.80713 27.7912 5.86542 28.0572 5.97992 28.2964C6.09747 28.5427 6.26984 28.7398 6.49225 28.8827C6.7157 29.0261 6.98022 29.0985 7.27814 29.0985C7.59631 29.0985 7.87354 29.0529 8.07367 28.8659C8.23175 28.7185 8.31586 28.534 8.362 28.5325C8.40656 28.5305 8.41467 28.5604 8.41772 28.5867C8.43091 28.7423 8.46942 28.8528 8.56665 28.9501C8.66394 29.0473 8.78961 29.0985 8.92999 29.0985C9.06885 29.0985 9.19452 29.0478 9.29431 28.9526C9.39569 28.8548 9.44885 28.7286 9.44885 28.5867V27.3625L9.44989 27.3585V25.4741C9.44989 25.3337 9.39868 25.2085 9.30139 25.1107C9.2041 25.0135 9.07843 24.9623 8.93811 24.9623Z" fill="#E5EAFA"/>
<path d="M19.4121 29.0985C19.3042 29.0985 19.2018 29.0727 19.1076 29.0225C19.0169 28.9734 18.9404 28.9085 18.8811 28.8294L18.8765 28.8234L16.454 25.4487V28.5867C16.454 28.7286 16.4003 28.8548 16.299 28.9526C16.1996 29.0478 16.0734 29.0985 15.9346 29.0985C15.7943 29.0985 15.6686 29.0473 15.5718 28.95C15.4745 28.8528 15.4229 28.7271 15.4229 28.5867V24.4398C15.4229 24.2605 15.4867 24.1039 15.6129 23.9747C15.738 23.846 15.8992 23.7776 16.078 23.7776H16.1707C16.3182 23.7776 16.532 23.8278 16.7149 24.0669L16.718 24.0705L19.1294 27.3027V24.297C19.1294 24.1576 19.1796 24.0314 19.2753 23.9326C19.3726 23.8313 19.4993 23.7776 19.6412 23.7776C19.7816 23.7776 19.9082 23.8303 20.008 23.9301C20.1073 24.0294 20.16 24.1566 20.16 24.297V28.4433C20.16 28.6222 20.0922 28.7833 19.9634 28.9085C19.8342 29.0347 19.6776 29.0985 19.4977 29.0985H19.4121Z" fill="#E5EAFA"/>
<path d="M29.7584 29.0985C29.614 29.0985 29.4822 29.0569 29.3667 28.9743C29.2552 28.8953 29.1742 28.7914 29.1255 28.6663L29.123 28.6587L28.5145 26.8553L27.9044 28.6627L27.9028 28.6668C27.8542 28.7914 27.7731 28.8953 27.6617 28.9749C27.5461 29.0569 27.4144 29.0985 27.2704 29.0985C27.1261 29.0985 26.9943 29.0569 26.8788 28.9743C26.7658 28.8943 26.6862 28.7909 26.6432 28.6683L25.573 25.6929C25.5507 25.6296 25.5396 25.5683 25.5396 25.51C25.5396 25.3696 25.5938 25.244 25.6961 25.1467C25.7985 25.0494 25.9312 24.9982 26.0792 24.9982C26.1887 24.9982 26.29 25.0266 26.3807 25.0823C26.477 25.1421 26.5433 25.2222 26.5783 25.321L27.272 27.4872L27.9535 25.3894C27.9915 25.2739 28.063 25.1791 28.1653 25.1067C28.2682 25.0347 28.3857 24.9982 28.5145 24.9982C28.6431 24.9982 28.7607 25.0347 28.8635 25.1067C28.9655 25.1786 29.0368 25.2734 29.0748 25.3884L29.7569 27.4872L30.4506 25.321C30.485 25.2227 30.5514 25.1421 30.6482 25.0823C30.7384 25.0266 30.8402 24.9982 30.9497 24.9982C31.0976 24.9982 31.2299 25.0494 31.3322 25.1467C31.4351 25.244 31.4893 25.3696 31.4893 25.51C31.4893 25.5683 31.4782 25.6296 31.4564 25.6914L30.3852 28.6693C30.3427 28.7909 30.2631 28.8938 30.1501 28.9749C30.0345 29.0569 29.9028 29.0985 29.7584 29.0985Z" fill="#E5EAFA"/>
<path d="M13.7603 29.0985C12.9642 29.0985 12.5259 28.6956 12.5259 27.964V25.9356H12.4834C12.3511 25.9356 12.2341 25.887 12.1459 25.7948C12.0603 25.7051 12.0146 25.5916 12.0146 25.4669C12.0146 25.3362 12.0608 25.2202 12.149 25.1325C12.2371 25.0443 12.3527 24.9977 12.4834 24.9977H12.5259V24.4682C12.5259 24.3223 12.5797 24.1941 12.6805 24.0973C12.7793 24.003 12.904 23.9529 13.0413 23.9529C13.1852 23.9529 13.3124 24.0035 13.4091 24.0998C13.5054 24.1971 13.5566 24.3243 13.5566 24.4682V24.602V24.6157V24.9982H14.1753C14.306 24.9982 14.422 25.0443 14.5097 25.132C14.5979 25.2207 14.6445 25.3362 14.6445 25.4669C14.6445 25.5916 14.5989 25.7051 14.5128 25.7953C14.4246 25.8875 14.308 25.9361 14.1753 25.9361H13.5566V27.9067C13.5566 28.0623 13.6564 28.2198 13.778 28.2275C13.9235 28.2366 14.3288 28.2128 14.4438 28.2751C14.5386 28.3258 14.6389 28.4539 14.6404 28.5923C14.642 28.7727 14.5457 28.9216 14.3734 29.0113L14.3693 29.0134L14.3653 29.0154C14.155 29.1127 13.9969 29.0985 13.7603 29.0985Z" fill="#E5EAFA"/>
<path d="M15.9988 0.900818C10.4464 0.900818 5.94531 5.40188 5.94531 10.9544V21.0079H15.9988C21.5513 21.0079 26.0524 16.5068 26.0524 10.9544C26.0524 5.40188 21.5513 0.900818 15.9988 0.900818ZM15.9988 16.516H10.4373V10.9544C10.4373 7.88272 12.9272 5.39277 15.9988 5.39277C19.0705 5.39277 21.5604 7.88272 21.5604 10.9544C21.5604 14.026 19.0705 16.516 15.9988 16.516Z" fill="#E5EAFA"/>
<path d="M15.999 8.46997C14.6269 8.46997 13.5146 9.58219 13.5146 10.9543V13.4387H15.999C17.3712 13.4387 18.4834 12.3265 18.4834 10.9543C18.4834 9.58219 17.3712 8.46997 15.999 8.46997Z" fill="#E5EAFA"/>
<path d="M23.0898 24.867C21.9219 24.867 20.9753 25.8135 20.9753 26.9815C20.9753 28.1494 21.9219 29.096 23.0898 29.096C24.2578 29.096 25.2043 28.1494 25.2043 26.9815C25.2043 25.8135 24.2578 24.867 23.0898 24.867ZM23.0898 28.119C22.4615 28.119 21.9522 27.6098 21.9522 26.9815C21.9522 26.3532 22.4615 25.8439 23.0898 25.8439C23.7181 25.8439 24.2274 26.3532 24.2274 26.9815C24.2274 27.6098 23.7181 28.119 23.0898 28.119Z" fill="#E5EAFA"/>
</svg>
