<svg width="83" height="24" viewBox="0 0 83 24" fill="none" xmlns="http://www.w3.org/2000/svg">
<path d="M7.10782 8.61787L6.16089 9.60676C5.36157 8.83543 4.58661 8.44951 3.83655 8.44951C3.35269 8.44951 2.93881 8.6075 2.59534 8.92298C2.25137 9.23845 2.07996 9.6135 2.07996 10.0486C2.07996 10.4133 2.22339 10.7635 2.51089 11.1002C2.79169 11.4582 3.38434 11.8679 4.28876 12.331C5.39676 12.8988 6.14694 13.4494 6.53955 13.9825C6.92548 14.5222 7.11816 15.1288 7.11816 15.8023C7.11816 16.742 6.78714 17.5397 6.12411 18.195C5.46155 18.8508 4.63217 19.1787 3.63657 19.1787C2.97043 19.1787 2.33374 19.0368 1.72766 18.7529C1.12109 18.4685 0.621185 18.0707 0.228516 17.5589L1.16458 16.4964C1.92191 17.3522 2.72485 17.7795 3.57339 17.7795C4.16238 17.7795 4.66583 17.5889 5.08289 17.2061C5.49988 16.8243 5.70865 16.3773 5.70865 15.8655C5.70865 15.4376 5.57187 15.0589 5.2984 14.7294C5.02481 14.3995 4.4043 13.9861 3.43665 13.4883C2.39175 12.962 1.68365 12.4326 1.31219 11.8995C0.933563 11.381 0.743958 10.7847 0.743958 10.1113C0.743958 9.23482 1.04388 8.50753 1.64325 7.9289C2.24307 7.35027 2.99478 7.06122 3.89975 7.06122C4.95853 7.06122 6.02774 7.58027 7.10782 8.61787Z" fill="#E5EAFA"/>
<path d="M9.41919 7.35596H10.9126V12.7413C10.9126 14.0602 10.9826 14.9646 11.123 15.4552C11.3338 16.1638 11.7368 16.7228 12.3331 17.133C12.9288 17.5433 13.6442 17.7485 14.4787 17.7485C15.306 17.7485 16.0074 17.5485 16.5824 17.1491C17.1574 16.7492 17.5536 16.2234 17.7712 15.5712C17.9251 15.1294 18.0023 14.186 18.0023 12.7413V7.35596H19.517V13.0257C19.517 14.6175 19.3294 15.8147 18.9544 16.6176C18.5793 17.4206 18.0198 18.0484 17.2766 18.5006C16.5331 18.9528 15.6007 19.1792 14.4787 19.1792C13.3494 19.1792 12.4097 18.9528 11.6596 18.5006C10.909 18.0484 10.348 17.4138 9.97662 16.5964C9.60464 15.78 9.41919 14.5507 9.41919 12.9096V7.35596Z" fill="#E5EAFA"/>
<path d="M22.1238 13.8877V12.4994C22.2357 11.8052 22.3973 11.2406 22.6076 10.8054C23.0982 9.59949 23.7577 8.71627 24.5854 8.15474C25.4127 7.59424 26.1001 7.31348 26.6466 7.31348C27.0533 7.31348 27.4884 7.44661 27.951 7.71339L27.1833 8.95456C26.5311 8.71627 25.8841 8.90897 25.2428 9.53319C24.601 10.1569 24.1575 10.837 23.912 11.5737C23.7297 12.2258 23.6385 13.4494 23.6385 15.2443V19.1471H22.1238V13.8877Z" fill="#E5EAFA"/>
<path d="M38.4253 15.0662L39.6665 15.7287C39.2666 16.5353 38.7967 17.1843 38.257 17.6749C37.7172 18.166 37.1106 18.5395 36.4371 18.7954C35.7642 19.0513 35.0032 19.1792 34.1548 19.1792C32.2754 19.1792 30.8063 18.5638 29.7475 17.333C28.6886 16.1022 28.1592 14.7124 28.1592 13.1624C28.1592 11.697 28.6078 10.3926 29.5055 9.24933C30.6415 7.79111 32.1666 7.06122 34.0812 7.06122C36.0372 7.06122 37.6048 7.8082 38.7828 9.30217C39.6173 10.3537 40.0379 11.6654 40.0452 13.236H29.6843C29.7122 14.5823 30.1401 15.6852 30.9673 16.5441C31.7946 17.4029 32.8151 17.8329 34.0284 17.8329C34.6173 17.8329 35.1892 17.7293 35.743 17.5226C36.2967 17.3154 36.7687 17.044 37.1577 16.7072C37.5468 16.3705 37.9695 15.8235 38.4253 15.0662ZM38.4253 11.9632C38.229 11.1707 37.9415 10.5382 37.5628 10.0647C37.1841 9.59122 36.6827 9.20892 36.0585 8.91832C35.4342 8.62719 34.7789 8.48163 34.0916 8.48163C32.9622 8.48163 31.9915 8.84631 31.1777 9.57568C30.5887 10.1082 30.1432 10.9044 29.8418 11.9632H38.4253Z" fill="#E5EAFA"/>
<path d="M60.4729 14.0186H64.0757L62.2581 9.04199L60.4729 14.0186Z" fill="#E5EAFA"/>
<path d="M49.9719 8.50757H48.3267V12.1928H49.9719C50.5474 12.1928 51.0287 12.1327 51.4156 12.012C51.802 11.8913 52.0968 11.6939 52.2999 11.4194C52.5024 11.1453 52.604 10.7863 52.604 10.3419C52.604 9.80987 52.4475 9.3768 52.1351 9.04216C51.7845 8.68576 51.0628 8.50757 49.9719 8.50757Z" fill="#E5EAFA"/>
<path d="M77.9321 0.829468H45.4953C43.2419 0.829468 41.4148 2.65652 41.4148 4.9099V19.0902C41.4148 21.3435 43.2419 23.1706 45.4953 23.1706H77.9321C80.1855 23.1706 82.0126 21.3435 82.0126 19.0902V4.9099C82.0126 2.65652 80.1855 0.829468 77.9321 0.829468ZM53.9447 13.0853C53.1884 13.7188 52.0612 14.0353 50.5641 14.0353H48.3268V17.4491C48.3268 17.937 48.2118 18.3074 47.9812 18.5597C47.7513 18.8115 47.4601 18.9379 47.1094 18.9379C46.7421 18.9379 46.4458 18.813 46.221 18.5638C45.9962 18.3142 45.8837 17.9479 45.8837 17.4656V8.17031C45.8837 7.63313 46.0071 7.24928 46.2536 7.01876C46.5008 6.78824 46.8929 6.67324 47.4301 6.67324H50.5641C51.4908 6.67324 52.2036 6.74473 52.703 6.88718C53.1962 7.02394 53.6225 7.25187 53.982 7.56993C54.3409 7.88799 54.614 8.27703 54.8004 8.73806C54.9869 9.19858 55.0802 9.7166 55.0802 10.2926C55.0802 11.5209 54.702 12.4517 53.9447 13.0853ZM67.5676 18.5882C67.3344 18.8213 67.0532 18.9379 66.7242 18.9379C66.532 18.9379 66.3678 18.9037 66.2306 18.8348C66.0933 18.7664 65.9783 18.6731 65.885 18.5556C65.7918 18.4374 65.6918 18.2567 65.5851 18.0127C65.4779 17.7687 65.3861 17.5532 65.3095 17.3667L64.7334 15.8531H59.831L59.2554 17.3999C59.0301 18.0028 58.8384 18.41 58.6794 18.6213C58.5204 18.8322 58.2598 18.9379 57.8982 18.9379C57.591 18.9379 57.3196 18.8254 57.0839 18.6006C56.8477 18.3758 56.7301 18.1209 56.7301 17.8355C56.7301 17.6713 56.7575 17.5014 56.8119 17.3258C56.8669 17.1502 56.9575 16.9062 57.0839 16.5933L60.1682 8.76241C60.2557 8.53759 60.3614 8.2677 60.4852 7.95223C60.6085 7.63727 60.7401 7.37516 60.8799 7.16691C61.0198 6.95815 61.2032 6.78979 61.4311 6.66081C61.6585 6.53182 61.9393 6.46759 62.2744 6.46759C62.6143 6.46759 62.8981 6.53182 63.1256 6.66081C63.3529 6.78979 63.5369 6.95556 63.6767 7.15862C63.8166 7.36169 63.9342 7.57925 64.0305 7.81236C64.1264 8.04547 64.2481 8.3568 64.3962 8.74635L67.5468 16.5275C67.7939 17.1201 67.9172 17.5506 67.9172 17.8189C67.9172 18.0987 67.8001 18.3551 67.5676 18.5882ZM78.8179 8.10453C78.7138 8.31847 78.5356 8.61426 78.2833 8.99293L75.2643 13.624V17.4491C75.2643 17.9479 75.1493 18.3209 74.9188 18.5675C74.6888 18.8146 74.3951 18.9379 74.0387 18.9379C73.6766 18.9379 73.3834 18.8156 73.1586 18.5716C72.9337 18.3276 72.8214 17.9536 72.8214 17.4491V13.624L69.8763 9.05872C69.6184 8.64741 69.4366 8.32676 69.3293 8.09624C69.2227 7.86572 69.1688 7.66576 69.1688 7.49585C69.1688 7.21612 69.2775 6.97473 69.494 6.77166C69.7106 6.56912 69.9779 6.46759 70.296 6.46759C70.6306 6.46759 70.8839 6.56187 71.0569 6.75146C71.2294 6.94054 71.489 7.31766 71.834 7.8823L74.0879 11.5426L76.3667 7.8823C76.5034 7.65748 76.6189 7.4684 76.7122 7.31507C76.8054 7.16121 76.908 7.0172 77.0204 6.88304C77.1328 6.74887 77.2576 6.64579 77.3949 6.5743C77.5317 6.50333 77.699 6.46759 77.8964 6.46759C78.2036 6.46759 78.46 6.56756 78.6656 6.76804C78.8713 6.96799 78.9744 7.19955 78.9744 7.4627C78.9744 7.67664 78.9221 7.89058 78.8179 8.10453Z" fill="#E5EAFA"/>
</svg>
