<svg width="31" height="30" viewBox="0 0 31 30" fill="none" xmlns="http://www.w3.org/2000/svg">
<path d="M23.7302 0.285278H7.69247C4.00012 0.285278 0.99585 3.28903 0.99585 6.98089V23.0191C0.99585 26.7115 4.00012 29.7148 7.69247 29.7148H23.7302C27.4231 29.7148 30.4254 26.711 30.4254 23.0191V6.98089C30.4254 3.28903 27.4231 0.285278 23.7302 0.285278ZM29.2842 23.0688C29.2842 26.1035 26.8141 28.5726 23.7799 28.5726H7.64282C4.60812 28.5726 2.13852 26.104 2.13852 23.0688V6.93174C2.13852 3.89708 4.60812 1.4279 7.64282 1.4279H23.7799C26.8141 1.4279 29.2842 3.89708 29.2842 6.93174V23.0688Z" fill="#E5EAFA"/>
<path d="M12.8947 12.6626H11.4886C11.0767 12.6626 10.5421 12.9544 10.3881 13.3426L10.5289 12.5982H8.81067L8.04761 16.8778H9.76788L10.2426 14.1685H12.0931C12.0931 14.1685 11.8565 15.5102 11.7516 16.1112C11.6462 16.7116 12.0541 16.8581 12.2558 16.8581H13.1552L13.7419 13.5295C13.6933 13.0522 13.3716 12.6626 12.8947 12.6626Z" fill="#E5EAFA"/>
<path d="M7.5723 12.5981L7.24951 14.435L8.55634 12.5981H7.5723Z" fill="#E5EAFA"/>
<path d="M9.61237 5.89484H3.85818L3.6084 7.31311H5.61697L4.81232 11.8826H6.54425L7.35345 7.31311H9.36203L9.61237 5.89484Z" fill="#E5EAFA"/>
<path d="M10.8025 10.4792L11.0549 9.04927H9.51301L9.26219 10.4792H10.8025ZM8.37394 11.8823C7.89711 11.8823 7.57637 11.4921 7.65999 11.0148L8.10283 8.51266C8.18544 8.03585 8.64552 7.64569 9.1208 7.64569H11.9421C12.4184 7.64569 12.7402 8.03585 12.6536 8.51266L12.2143 11.0148C12.1296 11.4921 11.6705 11.8823 11.1942 11.8823H8.37394Z" fill="#E5EAFA"/>
<path d="M19.7227 10.4797L19.9756 9.0498H22.2086L22.4564 7.64673H19.5839C19.1071 7.64673 18.6459 8.03638 18.5624 8.51269L18.1215 11.0153C18.0374 11.4921 18.3587 11.8823 18.837 11.8823H21.63L21.8762 10.4797H19.7227Z" fill="#E5EAFA"/>
<path d="M16.2112 10.4797H14.3212L14.8198 7.64618H13.3134L12.7216 11.0153C12.6369 11.4921 12.9576 11.8822 13.4345 11.8822H14.9029C15.3797 11.8822 15.7694 11.5985 16.0774 11.2316C16.0774 11.2316 16.2457 11.7221 16.4869 11.8321C16.7301 11.9436 17.4648 11.9172 17.4648 11.9172L18.2188 7.64669H16.7119L16.2112 10.4797Z" fill="#E5EAFA"/>
<path d="M27.0714 7.66697H25.6663C25.2533 7.66697 24.854 7.95934 24.6995 8.34697L25.1038 6.04602H23.5203L22.4912 11.8818H24.0767L24.553 9.17341H26.2713C26.2713 9.17341 26.0352 10.5142 25.9302 11.1161C25.8239 11.715 26.2328 11.8625 26.4319 11.8625H27.199L27.7858 8.53395C27.8689 8.05663 27.5487 7.66697 27.0714 7.66697Z" fill="#E5EAFA"/>
<path d="M21.4242 18.3012C20.7837 18.3012 20.3515 17.7742 20.4635 17.1343L21.0573 13.7702C21.1693 13.1277 21.788 12.6028 22.431 12.6028H26.0195C26.659 12.6028 27.0937 13.1277 26.9802 13.7702L26.3864 17.1343C26.2728 17.7737 25.6552 18.3012 25.0142 18.3012H21.4242ZM24.7674 16.7289L25.2199 14.1751H22.6762L22.2248 16.7289H24.7674Z" fill="#E5EAFA"/>
<path d="M17.9447 16.7289H15.3985L15.8499 14.1751H19.9761L20.2487 12.6023H15.6052C14.9632 12.6023 14.3471 13.1272 14.2335 13.7697L13.6397 17.1338C13.5272 17.7732 13.9584 18.3007 14.5994 18.3007H18.1899C18.8319 18.3007 19.4501 17.7737 19.5625 17.1338L19.9254 15.0689H18.2355L17.9447 16.7289Z" fill="#E5EAFA"/>
<path d="M14.4193 20.3176L12.2567 24.7751H10.8846L10.7214 22.0769L9.41156 24.7751H8.0318L7.76831 20.3176H8.74472L8.91553 23.8133L10.5977 20.3176H11.5899L11.7607 23.8133L13.4429 20.3176H14.4193Z" fill="#E5EAFA"/>
<path d="M18.5044 24.7751H17.5513L18.4968 20.3176H19.4499L18.5044 24.7751Z" fill="#E5EAFA"/>
<path d="M20.0701 24.7751H19.1169L20.0625 20.3176H21.0156L20.0701 24.7751Z" fill="#E5EAFA"/>
<path d="M26.6595 24.7749H25.8924C25.5357 24.7749 25.2879 24.7399 25.148 24.67C25.0082 24.6001 24.9382 24.4597 24.9382 24.2474C24.9382 24.1288 24.9565 23.989 24.9925 23.8294L25.7368 20.3174H26.6899L26.4503 21.4261H27.373L27.1946 22.2322H26.2876L26.0165 23.5035C25.9902 23.6333 25.9775 23.7184 25.9775 23.7599C25.9775 23.8476 26.0069 23.9044 26.0662 23.9302C26.1255 23.9565 26.2455 23.9692 26.4269 23.9692H26.8303L26.6595 24.7749Z" fill="#E5EAFA"/>
<path d="M14.4193 20.3176L12.2567 24.7751H10.8846L10.7214 22.0769L9.41156 24.7751H8.0318L7.76831 20.3176H8.74472L8.91553 23.8133L10.5977 20.3176H11.5899L11.7607 23.8133L13.4429 20.3176H14.4193Z" fill="#E5EAFA"/>
<path d="M18.5044 24.7751H17.5513L18.4968 20.3176H19.4499L18.5044 24.7751Z" fill="#E5EAFA"/>
<path d="M20.0701 24.7751H19.1169L20.0625 20.3176H21.0156L20.0701 24.7751Z" fill="#E5EAFA"/>
<path d="M26.6595 24.7749H25.8924C25.5357 24.7749 25.2879 24.7399 25.148 24.67C25.0082 24.6001 24.9382 24.4597 24.9382 24.2474C24.9382 24.1288 24.9565 23.989 24.9925 23.8294L25.7368 20.3174H26.6899L26.4503 21.4261H27.373L27.1946 22.2322H26.2876L26.0165 23.5035C25.9902 23.6333 25.9775 23.7184 25.9775 23.7599C25.9775 23.8476 26.0069 23.9044 26.0662 23.9302C26.1255 23.9565 26.2455 23.9692 26.4269 23.9692H26.8303L26.6595 24.7749Z" fill="#E5EAFA"/>
<path d="M14.4193 20.3176L12.2567 24.7751H10.8846L10.7214 22.0769L9.41156 24.7751H8.0318L7.76831 20.3176H8.74472L8.91553 23.8133L10.5977 20.3176H11.5899L11.7607 23.8133L13.4429 20.3176H14.4193Z" fill="#E5EAFA"/>
<path d="M18.5044 24.7751H17.5513L18.4968 20.3176H19.4499L18.5044 24.7751Z" fill="#E5EAFA"/>
<path d="M20.0701 24.7751H19.1169L20.0625 20.3176H21.0156L20.0701 24.7751Z" fill="#E5EAFA"/>
<path d="M26.6595 24.7749H25.8924C25.5357 24.7749 25.2879 24.7399 25.148 24.67C25.0082 24.6001 24.9382 24.4597 24.9382 24.2474C24.9382 24.1288 24.9565 23.989 24.9925 23.8294L25.7368 20.3174H26.6899L26.4503 21.4261H27.373L27.1946 22.2322H26.2876L26.0165 23.5035C25.9902 23.6333 25.9775 23.7184 25.9775 23.7599C25.9775 23.8476 26.0069 23.9044 26.0662 23.9302C26.1255 23.9565 26.2455 23.9692 26.4269 23.9692H26.8303L26.6595 24.7749Z" fill="#E5EAFA"/>
<path d="M7.17371 21.5269C7.03391 21.4544 6.78555 21.4185 6.42935 21.4185H5.06482C4.67212 21.4185 4.37369 21.4924 4.16946 21.6394C3.96527 21.7863 3.82745 22.0306 3.75443 22.3721L3.45197 23.8218C3.43121 23.9099 3.41595 23.9885 3.40585 24.0584C3.39569 24.1283 3.39014 24.1917 3.39014 24.2484C3.39014 24.3523 3.40585 24.4359 3.43677 24.5002C3.46817 24.5651 3.51987 24.6178 3.59183 24.6593C3.66431 24.7004 3.76205 24.7288 3.88623 24.7445C4.01031 24.7597 4.16541 24.7678 4.35135 24.7678H6.66904L6.83978 23.9697H4.88693C4.70609 23.9697 4.586 23.955 4.52618 23.9272C4.46689 23.8983 4.43701 23.8405 4.43701 23.7523C4.43701 23.6905 4.44763 23.6079 4.46838 23.5046L4.4689 23.502H4.87177L4.87125 23.5046H7.08859L7.32877 22.3731C7.36523 22.2074 7.383 22.0655 7.383 21.9464C7.383 21.7392 7.31305 21.5993 7.17371 21.5269ZM6.33615 22.6974H5.27054V22.6964H4.63867C4.65894 22.5935 4.68329 22.5109 4.71216 22.4491C4.74051 22.3873 4.77649 22.3391 4.82108 22.3057C4.86465 22.2717 4.92139 22.25 4.99133 22.2398C5.06128 22.2292 5.14789 22.2241 5.25076 22.2241H6.01083C6.25909 22.2241 6.38275 22.3022 6.38275 22.4567C6.38275 22.4724 6.36755 22.553 6.33615 22.6974Z" fill="#E5EAFA"/>
<path d="M17.4151 21.689C17.3816 21.6221 17.3274 21.5689 17.2519 21.5304C17.1774 21.4914 17.0791 21.4646 16.958 21.4488C16.8364 21.4336 16.6849 21.4255 16.504 21.4255H14.1939L14.0232 22.2317H15.9771C16.1579 22.2317 16.278 22.2444 16.3378 22.2707C16.3971 22.2966 16.427 22.3533 16.427 22.441C16.427 22.4825 16.4143 22.5671 16.3885 22.6959H15.6244V22.6969H14.8765C14.6546 22.6969 14.4696 22.709 14.3221 22.7318C14.1752 22.7546 14.0521 22.8002 13.9537 22.8671C13.856 22.9345 13.778 23.0303 13.7212 23.1544C13.6649 23.2786 13.6133 23.4407 13.5667 23.6429L13.5276 23.8288C13.4916 23.989 13.4734 24.1288 13.4734 24.2469C13.4734 24.3553 13.4906 24.444 13.524 24.5109C13.558 24.5783 13.6122 24.631 13.6872 24.6695C13.7617 24.7085 13.8605 24.7353 13.9821 24.751C14.1038 24.7662 14.2542 24.7744 14.4356 24.7744H16.9008L17.4125 22.3711C17.4485 22.2114 17.4668 22.0716 17.4668 21.9525C17.4658 21.8446 17.449 21.7564 17.4151 21.689ZM14.6829 23.9687C14.5435 23.9687 14.4736 23.9094 14.4736 23.7903C14.4736 23.7179 14.5015 23.652 14.5587 23.5927C14.6155 23.5334 14.6906 23.503 14.7838 23.503H15.8144L15.8149 23.5005H16.2167L16.1169 23.9682L14.6829 23.9687Z" fill="#E5EAFA"/>
<path d="M24.5895 21.5269C24.4501 21.4544 24.2018 21.4185 23.8456 21.4185H22.4805C22.0879 21.4185 21.7894 21.4924 21.5852 21.6394C21.381 21.7863 21.2427 22.0306 21.1702 22.3721L20.8677 23.8218C20.8469 23.9099 20.8318 23.9885 20.8216 24.0584C20.8115 24.1283 20.8059 24.1917 20.8059 24.2484C20.8059 24.3523 20.8216 24.4359 20.8525 24.5002C20.8839 24.5651 20.9356 24.6178 21.0076 24.6593C21.08 24.7004 21.1779 24.7288 21.3019 24.7445C21.4261 24.7597 21.5811 24.7678 21.7676 24.7678H24.0853L24.256 23.9697H22.3027C22.1218 23.9697 22.0012 23.955 21.9419 23.9272C21.8826 23.8983 21.8523 23.8405 21.8523 23.7523C21.8523 23.6905 21.8629 23.6079 21.8837 23.5046L21.8842 23.502H22.287L22.2865 23.5046H24.5038L24.744 22.3731C24.7805 22.2074 24.7982 22.0655 24.7982 21.9464C24.7987 21.7392 24.7293 21.5993 24.5895 21.5269ZM23.7524 22.6974H22.7486V22.6964H22.0549C22.0752 22.5935 22.0995 22.5109 22.1284 22.4491C22.1562 22.3873 22.1927 22.3391 22.2368 22.3057C22.2804 22.2717 22.3372 22.25 22.4071 22.2398C22.477 22.2292 22.5636 22.2241 22.6665 22.2241H23.4265C23.6743 22.2241 23.7985 22.3022 23.7985 22.4567C23.799 22.4724 23.7833 22.553 23.7524 22.6974Z" fill="#E5EAFA"/>
</svg>